<svg width="1508" height="1008" viewBox="0 0 1508 1008" fill="none" xmlns="http://www.w3.org/2000/svg">
<g clip-path="url(#clip0_200_3926)" filter="url(#filter0_d_200_3926)">
<rect width="1500" height="1000" transform="translate(4)" fill="#FF999B" fill-opacity="0.75"/>
<g clip-path="url(#clip1_200_3926)">
<path d="M42.3219 101.855C57.0484 109.752 71.7326 117.737 86.5433 125.477C89.5764 127.061 90.3085 128.558 89.4407 131.959C80.9022 166.524 97.2209 202.632 128.944 219.738C144.286 228.021 161.94 230.985 179.145 228.166C196.35 225.348 212.136 216.906 224.033 204.162C226.504 201.535 228.067 201.364 231.043 202.975C260.601 218.949 290.212 234.827 319.876 250.609C323.176 252.379 323.472 253.334 321.248 256.608C278.116 320.1 197.508 352.539 120.115 332.094C56.7414 315.346 12.8684 275.564 -10.2066 214.031C-25.9522 172.08 -25.3436 129.651 -11.0093 87.3382C-6.97072 75.4186 -6.99989 75.4136 4.19972 81.4189L42.3219 101.855Z" fill="#FCD583" fill-opacity="0.5"/>
<path d="M290.072 198.161C275.659 190.432 261.299 182.594 246.791 175.054C243.326 173.254 242.589 171.351 243.406 167.588C250.589 134.591 236.623 100.424 209.344 83.7947C178.614 65.0542 143.138 67.0315 115.902 89.0002C115.086 89.6616 114.291 90.3614 113.525 91.0767C105.053 98.9516 105.053 98.9516 94.5757 93.3333C67.9152 79.0376 41.2921 64.6823 14.5653 50.5103C10.6011 48.3847 9.05969 47.0695 12.3834 42.5846C56.2261 -16.5957 115.057 -43.6848 188.079 -35.8176C266.786 -27.3609 328.979 28.3745 348.392 104.918C358.125 143.295 355.555 181.15 341.322 218.143C338.927 224.353 338.869 224.343 332.857 221.124C318.594 213.465 304.332 205.811 290.072 198.161Z" fill="#FCD583" fill-opacity="0.5"/>
<path d="M193.773 102.56C221.065 117.594 230.322 150.469 215.06 178.126C200.4 204.679 167.338 213.879 140.063 198.995C133.701 195.53 128.085 190.845 123.537 185.208C118.989 179.571 115.599 173.093 113.561 166.147C111.522 159.2 110.876 151.921 111.659 144.727C112.442 137.532 114.638 130.565 118.123 124.224C133.222 96.9121 166.305 87.4313 193.773 102.56Z" fill="#FCD583" fill-opacity="0.5"/>
</g>
<g clip-path="url(#clip2_200_3926)">
<path d="M1193.58 134.661C1209.58 143.242 1225.54 151.92 1241.63 160.332C1244.93 162.053 1245.73 163.68 1244.78 167.376C1235.5 204.939 1253.24 244.179 1287.71 262.769C1304.38 271.77 1323.57 274.991 1342.27 271.929C1360.97 268.866 1378.12 259.692 1391.05 245.841C1393.73 242.987 1395.43 242.801 1398.67 244.552C1430.79 261.911 1462.97 279.167 1495.21 296.318C1498.79 298.241 1499.11 299.279 1496.7 302.837C1449.82 371.836 1362.22 407.09 1278.12 384.871C1209.25 366.671 1161.57 323.437 1136.49 256.567C1119.38 210.977 1120.04 164.868 1135.62 118.885C1140.01 105.931 1139.98 105.926 1152.15 112.452L1193.58 134.661Z" fill="#FCD583" fill-opacity="0.5"/>
<path d="M1462.82 239.32C1447.15 230.921 1431.55 222.404 1415.78 214.209C1412.01 212.253 1411.21 210.185 1412.1 206.095C1419.91 170.236 1404.73 133.105 1375.09 115.034C1341.69 94.6675 1303.14 96.8164 1273.54 120.691C1272.65 121.409 1271.79 122.17 1270.95 122.947C1261.75 131.505 1261.75 131.505 1250.36 125.4C1221.39 109.864 1192.46 94.2633 1163.41 78.8621C1159.1 76.5521 1157.43 75.1228 1161.04 70.2489C1208.69 5.93515 1272.62 -23.5037 1351.98 -14.9541C1437.51 -5.76386 1505.1 54.8061 1526.19 137.99C1536.77 179.695 1533.98 220.834 1518.51 261.035C1515.91 267.784 1515.85 267.773 1509.31 264.275C1493.81 255.952 1478.31 247.634 1462.82 239.32Z" fill="#FCD583" fill-opacity="0.5"/>
<path d="M1358.39 135.009C1388.05 151.347 1398.11 187.074 1381.52 217.129C1365.59 245.986 1329.66 255.984 1300.02 239.809C1293.1 236.043 1287 230.952 1282.06 224.826C1277.12 218.7 1273.43 211.661 1271.22 204.111C1269 196.562 1268.3 188.651 1269.15 180.833C1270 173.015 1272.39 165.443 1276.17 158.552C1292.58 128.871 1328.54 118.568 1358.39 135.009Z" fill="#FCD583" fill-opacity="0.5"/>
</g>
<g clip-path="url(#clip3_200_3926)">
<path d="M715.964 425.491C731.098 433.606 746.189 441.812 761.409 449.766C764.526 451.394 765.278 452.933 764.387 456.428C755.612 491.949 772.382 529.056 804.983 546.635C820.749 555.147 838.892 558.193 856.573 555.296C874.254 552.4 890.476 543.725 902.702 530.627C905.242 527.928 906.848 527.752 909.906 529.408C940.282 545.824 970.712 562.141 1001.2 578.36C1004.59 580.179 1004.89 581.16 1002.61 584.525C958.282 649.773 875.444 683.11 795.91 662.099C730.783 644.888 685.696 604.005 661.983 540.77C645.801 497.658 646.427 454.056 661.158 410.572C665.308 398.323 665.278 398.318 676.787 404.489L715.964 425.491Z" fill="#FCD583" fill-opacity="0.5"/>
<path d="M970.567 524.461C955.755 516.518 940.998 508.464 926.089 500.714C922.528 498.865 921.771 496.909 922.61 493.042C929.992 459.132 915.64 424.02 887.607 406.931C856.026 387.672 819.568 389.704 791.579 412.28C790.74 412.96 789.923 413.679 789.136 414.414C780.43 422.507 780.43 422.507 769.663 416.733C742.265 402.042 714.905 387.289 687.439 372.725C683.365 370.541 681.781 369.189 685.197 364.58C730.252 303.763 790.711 275.924 865.753 284.009C946.637 292.7 1010.55 349.977 1030.5 428.639C1040.5 468.077 1037.86 506.979 1023.24 544.995C1020.77 551.377 1020.71 551.367 1014.54 548.059C999.878 540.189 985.222 532.322 970.567 524.461Z" fill="#FCD583" fill-opacity="0.5"/>
<path d="M871.554 426.31C899.601 441.76 909.114 475.545 893.43 503.967C878.364 531.255 844.387 540.709 816.358 525.413C809.82 521.852 804.049 517.038 799.375 511.245C794.701 505.452 791.217 498.795 789.122 491.656C787.027 484.517 786.363 477.037 787.168 469.643C787.972 462.25 790.23 455.09 793.81 448.573C809.327 420.506 843.326 410.763 871.554 426.31Z" fill="#FCD583" fill-opacity="0.5"/>
</g>
<g clip-path="url(#clip4_200_3926)">
<path d="M1319.74 868.044C1336.57 877.066 1353.35 886.19 1370.27 895.033C1373.73 896.843 1374.57 898.553 1373.58 902.439C1363.82 941.931 1382.47 983.186 1418.71 1002.73C1436.24 1012.19 1456.41 1015.58 1476.07 1012.36C1495.73 1009.14 1513.76 999.495 1527.36 984.933C1530.18 981.932 1531.97 981.737 1535.37 983.578C1569.14 1001.83 1602.97 1019.97 1636.86 1038C1640.63 1040.02 1640.97 1041.11 1638.43 1044.86C1589.15 1117.4 1497.05 1154.46 1408.63 1131.1C1336.22 1111.97 1286.09 1066.51 1259.73 996.209C1241.74 948.278 1242.43 899.802 1258.81 851.458C1263.43 837.839 1263.39 837.834 1276.19 844.695L1319.74 868.044Z" fill="#FCD583" fill-opacity="0.5"/>
<path d="M1602.81 978.077C1586.34 969.247 1569.93 960.292 1553.36 951.677C1549.4 949.621 1548.56 947.446 1549.49 943.147C1557.7 905.446 1541.74 866.409 1510.57 847.409C1475.46 825.998 1434.93 828.257 1403.81 853.357C1402.88 854.113 1401.97 854.912 1401.1 855.729C1391.42 864.727 1391.42 864.727 1379.45 858.308C1348.99 841.974 1318.57 825.573 1288.03 809.381C1283.5 806.952 1281.74 805.449 1285.54 800.325C1335.63 732.709 1402.85 701.759 1486.28 710.747C1576.2 720.41 1647.26 784.09 1669.44 871.544C1680.56 915.391 1677.63 958.642 1661.36 1000.91C1658.63 1008 1658.56 1007.99 1651.69 1004.31C1635.4 995.563 1619.1 986.818 1602.81 978.077Z" fill="#FCD583" fill-opacity="0.5"/>
<path d="M1492.95 868.534C1524.13 885.711 1534.71 923.273 1517.27 954.871C1500.52 985.209 1462.75 995.721 1431.59 978.715C1424.32 974.756 1417.9 969.403 1412.7 962.963C1407.51 956.522 1403.64 949.122 1401.31 941.185C1398.98 933.248 1398.24 924.931 1399.13 916.711C1400.03 908.492 1402.54 900.531 1406.52 893.286C1423.77 862.081 1461.57 851.249 1492.95 868.534Z" fill="#FCD583" fill-opacity="0.5"/>
</g>
<g clip-path="url(#clip5_200_3926)">
<path d="M138.908 804.444C155.39 813.282 171.824 822.219 188.4 830.881C191.795 832.654 192.614 834.33 191.643 838.136C182.087 876.821 200.351 917.233 235.855 936.378C253.025 945.648 272.784 948.965 292.04 945.811C311.296 942.656 328.963 933.208 342.278 918.944C345.043 916.005 346.792 915.813 350.123 917.617C383.204 935.494 416.345 953.265 449.545 970.928C453.238 972.909 453.569 973.978 451.08 977.642C402.807 1048.7 312.591 1085.01 225.974 1062.12C155.046 1043.38 105.944 998.857 80.1187 929.99C62.4964 883.039 63.1775 835.553 79.2203 788.197C83.7403 774.856 83.7076 774.851 96.2422 781.572L138.908 804.444Z" fill="#FCD583" fill-opacity="0.5"/>
<path d="M416.187 912.229C400.056 903.579 383.985 894.807 367.747 886.367C363.87 884.354 363.044 882.223 363.959 878.012C371.998 841.081 356.368 802.842 325.838 784.231C291.445 763.257 251.74 765.47 221.258 790.057C220.344 790.797 219.455 791.58 218.597 792.381C209.116 801.194 209.116 801.194 197.389 794.906C167.551 778.907 137.755 762.84 107.842 746.979C103.406 744.6 101.681 743.128 105.4 738.109C154.469 671.875 220.312 641.557 302.037 650.362C390.126 659.826 459.732 722.205 481.459 807.872C492.352 850.823 489.475 893.19 473.546 934.592C470.866 941.542 470.801 941.531 464.071 937.929C448.109 929.357 432.147 920.791 416.187 912.229Z" fill="#FCD583" fill-opacity="0.5"/>
<path d="M308.592 804.893C339.137 821.719 349.497 858.513 332.416 889.466C316.009 919.184 279.005 929.481 248.48 912.823C241.359 908.945 235.074 903.701 229.984 897.392C224.894 891.084 221.1 883.834 218.819 876.059C216.537 868.284 215.814 860.138 216.69 852.086C217.566 844.034 220.025 836.236 223.924 829.139C240.823 798.572 277.849 787.962 308.592 804.893Z" fill="#FCD583" fill-opacity="0.5"/>
</g>
</g>
<defs>
<filter id="filter0_d_200_3926" x="0" y="0" width="1508" height="1008" filterUnits="userSpaceOnUse" color-interpolation-filters="sRGB">
<feFlood flood-opacity="0" result="BackgroundImageFix"/>
<feColorMatrix in="SourceAlpha" type="matrix" values="0 0 0 0 0 0 0 0 0 0 0 0 0 0 0 0 0 0 127 0" result="hardAlpha"/>
<feOffset dy="4"/>
<feGaussianBlur stdDeviation="2"/>
<feComposite in2="hardAlpha" operator="out"/>
<feColorMatrix type="matrix" values="0 0 0 0 0 0 0 0 0 0 0 0 0 0 0 0 0 0 0.25 0"/>
<feBlend mode="normal" in2="BackgroundImageFix" result="effect1_dropShadow_200_3926"/>
<feBlend mode="normal" in="SourceGraphic" in2="effect1_dropShadow_200_3926" result="shape"/>
</filter>
<clipPath id="clip0_200_3926">
<rect width="1500" height="1000" fill="white" transform="translate(4)"/>
</clipPath>
<clipPath id="clip1_200_3926">
<rect width="426.005" height="425.452" fill="white" transform="translate(79.0527 -138) rotate(28.2008)"/>
</clipPath>
<clipPath id="clip2_200_3926">
<rect width="462.957" height="462.357" fill="white" transform="translate(1233.49 -126) rotate(28.2008)"/>
</clipPath>
<clipPath id="clip3_200_3926">
<rect width="437.79" height="437.222" fill="white" transform="translate(753.711 179) rotate(28.2008)"/>
</clipPath>
<clipPath id="clip4_200_3926">
<rect width="486.727" height="486.096" fill="white" transform="translate(1361.71 594) rotate(28.2008)"/>
</clipPath>
<clipPath id="clip5_200_3926">
<rect width="476.781" height="476.163" fill="white" transform="translate(180.017 536) rotate(28.2008)"/>
</clipPath>
</defs>
</svg>
