<svg width="2508" height="1508" viewBox="0 0 2508 1508" fill="none" xmlns="http://www.w3.org/2000/svg">
<g clip-path="url(#clip0_200_3926)" filter="url(#filter0_d_200_3926)">
<rect width="2500" height="1500" transform="translate(4)" fill="#FF999B" fill-opacity="0.75"/>
<g clip-path="url(#clip1_200_3926)">
<path d="M42.3219 101.855C57.0484 109.752 71.7326 117.737 86.5433 125.477C89.5764 127.061 90.3085 128.558 89.4407 131.959C80.9022 166.524 97.2209 202.632 128.944 219.738C144.286 228.021 161.94 230.985 179.145 228.166C196.35 225.348 212.136 216.906 224.033 204.162C226.504 201.535 228.067 201.364 231.043 202.975C260.601 218.949 290.212 234.827 319.876 250.609C323.176 252.379 323.472 253.334 321.248 256.608C278.116 320.1 197.508 352.539 120.115 332.094C56.7414 315.346 12.8684 275.564 -10.2066 214.031C-25.9522 172.08 -25.3436 129.651 -11.0093 87.3382C-6.97072 75.4186 -6.99989 75.4136 4.19972 81.4189L42.3219 101.855Z" fill="#FCD583" fill-opacity="0.5"/>
<path d="M290.072 198.161C275.659 190.432 261.299 182.594 246.791 175.054C243.326 173.254 242.589 171.351 243.406 167.588C250.589 134.591 236.623 100.424 209.344 83.7947C178.614 65.0542 143.138 67.0315 115.902 89.0002C115.086 89.6616 114.291 90.3614 113.525 91.0767C105.053 98.9516 105.053 98.9516 94.5757 93.3333C67.9152 79.0376 41.2921 64.6823 14.5653 50.5103C10.6011 48.3847 9.05969 47.0695 12.3834 42.5846C56.2261 -16.5957 115.057 -43.6848 188.079 -35.8176C266.786 -27.3609 328.979 28.3745 348.392 104.918C358.125 143.295 355.555 181.15 341.322 218.143C338.927 224.353 338.869 224.343 332.857 221.124C318.594 213.465 304.332 205.811 290.072 198.161Z" fill="#FCD583" fill-opacity="0.5"/>
<path d="M193.773 102.56C221.065 117.594 230.322 150.469 215.06 178.126C200.4 204.679 167.338 213.879 140.063 198.995C133.701 195.53 128.085 190.845 123.537 185.208C118.989 179.571 115.599 173.093 113.561 166.147C111.522 159.2 110.876 151.921 111.659 144.727C112.442 137.532 114.638 130.565 118.123 124.224C133.222 96.9121 166.305 87.4313 193.773 102.56Z" fill="#FCD583" fill-opacity="0.5"/>
</g>
<g clip-path="url(#clip2_200_3926)">
<path d="M1193.58 134.661C1209.58 143.242 1225.54 151.92 1241.63 160.332C1244.93 162.053 1245.73 163.68 1244.78 167.376C1235.5 204.939 1253.24 244.179 1287.71 262.769C1304.38 271.77 1323.57 274.991 1342.27 271.929C1360.97 268.866 1378.12 259.692 1391.05 245.841C1393.73 242.987 1395.43 242.801 1398.67 244.552C1430.79 261.911 1462.97 279.167 1495.21 296.318C1498.79 298.241 1499.11 299.279 1496.7 302.837C1449.82 371.836 1362.22 407.09 1278.12 384.871C1209.25 366.671 1161.57 323.437 1136.49 256.567C1119.38 210.977 1120.04 164.868 1135.62 118.885C1140.01 105.931 1139.98 105.926 1152.15 112.452L1193.58 134.661Z" fill="#FCD583" fill-opacity="0.5"/>
<path d="M1462.82 239.32C1447.15 230.921 1431.55 222.404 1415.78 214.209C1412.02 212.253 1411.21 210.185 1412.1 206.095C1419.91 170.236 1404.73 133.106 1375.09 115.034C1341.69 94.6676 1303.14 96.8164 1273.54 120.691C1272.65 121.409 1271.79 122.17 1270.95 122.947C1261.75 131.505 1261.75 131.505 1250.36 125.4C1221.39 109.864 1192.46 94.2633 1163.41 78.8621C1159.1 76.5521 1157.43 75.1228 1161.04 70.2489C1208.69 5.93515 1272.62 -23.5037 1351.98 -14.9541C1437.51 -5.76386 1505.1 54.8061 1526.2 137.99C1536.77 179.695 1533.98 220.834 1518.51 261.035C1515.91 267.784 1515.85 267.773 1509.31 264.275C1493.81 255.952 1478.31 247.634 1462.82 239.32Z" fill="#FCD583" fill-opacity="0.5"/>
<path d="M1358.39 135.009C1388.05 151.347 1398.11 187.074 1381.52 217.129C1365.59 245.986 1329.66 255.984 1300.02 239.809C1293.11 236.043 1287 230.952 1282.06 224.826C1277.12 218.7 1273.43 211.661 1271.22 204.111C1269 196.562 1268.3 188.651 1269.15 180.833C1270 173.015 1272.39 165.443 1276.18 158.552C1292.58 128.871 1328.54 118.568 1358.39 135.009Z" fill="#FCD583" fill-opacity="0.5"/>
</g>
<g clip-path="url(#clip3_200_3926)">
<path d="M715.964 425.491C731.098 433.606 746.188 441.812 761.408 449.766C764.526 451.394 765.278 452.932 764.386 456.428C755.611 491.949 772.382 529.056 804.983 546.635C820.748 555.147 838.891 558.193 856.572 555.296C874.253 552.4 890.476 543.725 902.702 530.627C905.241 527.928 906.847 527.752 909.905 529.408C940.281 545.824 970.712 562.141 1001.2 578.36C1004.59 580.179 1004.89 581.16 1002.61 584.525C958.281 649.773 875.443 683.11 795.909 662.099C730.782 644.888 685.695 604.005 661.982 540.769C645.801 497.658 646.426 454.056 661.157 410.572C665.307 398.323 665.277 398.318 676.787 404.489L715.964 425.491Z" fill="#FCD583" fill-opacity="0.5"/>
<path d="M970.568 524.461C955.756 516.518 940.999 508.464 926.089 500.714C922.529 498.865 921.771 496.909 922.611 493.042C929.992 459.132 915.64 424.02 887.607 406.931C856.027 387.672 819.569 389.704 791.58 412.28C790.741 412.96 789.924 413.679 789.137 414.414C780.431 422.507 780.431 422.507 769.663 416.733C742.265 402.042 714.906 387.289 687.439 372.725C683.366 370.541 681.781 369.189 685.197 364.58C730.253 303.763 790.711 275.924 865.753 284.009C946.638 292.7 1010.55 349.977 1030.5 428.639C1040.5 468.077 1037.86 506.979 1023.24 544.995C1020.77 551.377 1020.71 551.367 1014.54 548.059C999.879 540.189 985.222 532.322 970.568 524.461Z" fill="#FCD583" fill-opacity="0.5"/>
<path d="M871.553 426.31C899.6 441.76 909.114 475.545 893.429 503.967C878.364 531.254 844.386 540.709 816.357 525.413C809.819 521.852 804.048 517.037 799.374 511.245C794.701 505.452 791.217 498.795 789.122 491.656C787.027 484.517 786.363 477.036 787.167 469.643C787.972 462.25 790.229 455.09 793.81 448.573C809.327 420.506 843.325 410.763 871.553 426.31Z" fill="#FCD583" fill-opacity="0.5"/>
</g>
<g clip-path="url(#clip4_200_3926)">
<path d="M1919.87 1205.49C1935 1213.61 1950.09 1221.81 1965.31 1229.77C1968.43 1231.39 1969.18 1232.93 1968.29 1236.43C1959.52 1271.95 1976.29 1309.06 2008.89 1326.64C2024.65 1335.15 2042.8 1338.19 2060.48 1335.3C2078.16 1332.4 2094.38 1323.72 2106.61 1310.63C2109.15 1307.93 2110.75 1307.75 2113.81 1309.41C2144.19 1325.82 2174.62 1342.14 2205.1 1358.36C2208.49 1360.18 2208.8 1361.16 2206.51 1364.53C2162.19 1429.77 2079.35 1463.11 1999.81 1442.1C1934.69 1424.89 1889.6 1384 1865.89 1320.77C1849.71 1277.66 1850.33 1234.06 1865.06 1190.57C1869.21 1178.32 1869.18 1178.32 1880.69 1184.49L1919.87 1205.49Z" fill="#FCD583" fill-opacity="0.5"/>
<path d="M2174.47 1304.46C2159.66 1296.52 2144.9 1288.46 2129.99 1280.71C2126.43 1278.87 2125.67 1276.91 2126.51 1273.04C2133.9 1239.13 2119.54 1204.02 2091.51 1186.93C2059.93 1167.67 2023.47 1169.7 1995.48 1192.28C1994.64 1192.96 1993.83 1193.68 1993.04 1194.41C1984.33 1202.51 1984.33 1202.51 1973.57 1196.73C1946.17 1182.04 1918.81 1167.29 1891.34 1152.73C1887.27 1150.54 1885.69 1149.19 1889.1 1144.58C1934.16 1083.76 1994.62 1055.92 2069.66 1064.01C2150.54 1072.7 2214.46 1129.98 2234.41 1208.64C2244.41 1248.08 2241.77 1286.98 2227.14 1325C2224.68 1331.38 2224.62 1331.37 2218.44 1328.06C2203.78 1320.19 2189.13 1312.32 2174.47 1304.46Z" fill="#FCD583" fill-opacity="0.5"/>
<path d="M2075.46 1206.31C2103.51 1221.76 2113.02 1255.55 2097.33 1283.97C2082.27 1311.25 2048.29 1320.71 2020.26 1305.41C2013.72 1301.85 2007.95 1297.04 2003.28 1291.24C1998.61 1285.45 1995.12 1278.8 1993.03 1271.66C1990.93 1264.52 1990.27 1257.04 1991.07 1249.64C1991.88 1242.25 1994.13 1235.09 1997.71 1228.57C2013.23 1200.51 2047.23 1190.76 2075.46 1206.31Z" fill="#FCD583" fill-opacity="0.5"/>
</g>
<g clip-path="url(#clip5_200_3926)">
<path d="M1902.87 512.491C1918 520.606 1933.09 528.812 1948.31 536.766C1951.43 538.394 1952.18 539.933 1951.29 543.428C1942.52 578.949 1959.29 616.056 1991.89 633.635C2007.65 642.147 2025.8 645.193 2043.48 642.296C2061.16 639.4 2077.38 630.725 2089.61 617.627C2092.15 614.928 2093.75 614.752 2096.81 616.408C2127.19 632.824 2157.62 649.141 2188.1 665.36C2191.49 667.179 2191.8 668.16 2189.51 671.525C2145.19 736.773 2062.35 770.11 1982.81 749.099C1917.69 731.888 1872.6 691.005 1848.89 627.77C1832.71 584.658 1833.33 541.056 1848.06 497.572C1852.21 485.323 1852.18 485.318 1863.69 491.489L1902.87 512.491Z" fill="#FCD583" fill-opacity="0.5"/>
<path d="M2157.47 611.461C2142.66 603.518 2127.9 595.464 2112.99 587.714C2109.43 585.865 2108.67 583.909 2109.51 580.042C2116.9 546.132 2102.54 511.02 2074.51 493.931C2042.93 474.672 2006.47 476.704 1978.48 499.28C1977.64 499.96 1976.83 500.679 1976.04 501.414C1967.33 509.507 1967.33 509.507 1956.57 503.733C1929.17 489.042 1901.81 474.289 1874.34 459.725C1870.27 457.541 1868.69 456.189 1872.1 451.58C1917.16 390.763 1977.62 362.924 2052.66 371.009C2133.54 379.7 2197.46 436.977 2217.41 515.639C2227.41 555.077 2224.77 593.979 2210.14 631.995C2207.68 638.377 2207.62 638.367 2201.44 635.059C2186.78 627.189 2172.13 619.322 2157.47 611.461Z" fill="#FCD583" fill-opacity="0.5"/>
<path d="M2058.46 513.31C2086.51 528.76 2096.02 562.545 2080.33 590.967C2065.27 618.255 2031.29 627.709 2003.26 612.413C1996.72 608.852 1990.95 604.038 1986.28 598.245C1981.61 592.452 1978.12 585.795 1976.03 578.656C1973.93 571.517 1973.27 564.037 1974.07 556.643C1974.88 549.25 1977.13 542.09 1980.71 535.573C1996.23 507.506 2030.23 497.763 2058.46 513.31Z" fill="#FCD583" fill-opacity="0.5"/>
</g>
<g clip-path="url(#clip6_200_3926)">
<path d="M1319.74 868.044C1336.57 877.066 1353.35 886.19 1370.27 895.033C1373.73 896.843 1374.57 898.553 1373.58 902.439C1363.82 941.931 1382.47 983.186 1418.71 1002.73C1436.24 1012.19 1456.41 1015.58 1476.07 1012.36C1495.73 1009.14 1513.76 999.495 1527.36 984.933C1530.18 981.932 1531.97 981.737 1535.37 983.578C1569.14 1001.83 1602.97 1019.97 1636.86 1038C1640.63 1040.02 1640.97 1041.11 1638.43 1044.86C1589.15 1117.4 1497.05 1154.46 1408.63 1131.1C1336.22 1111.97 1286.09 1066.51 1259.73 996.209C1241.74 948.278 1242.43 899.802 1258.81 851.458C1263.43 837.839 1263.39 837.834 1276.19 844.695L1319.74 868.044Z" fill="#FCD583" fill-opacity="0.5"/>
<path d="M1602.81 978.077C1586.34 969.247 1569.93 960.292 1553.36 951.677C1549.4 949.621 1548.56 947.446 1549.49 943.146C1557.7 905.446 1541.74 866.409 1510.57 847.409C1475.46 825.998 1434.93 828.257 1403.81 853.357C1402.88 854.113 1401.97 854.912 1401.1 855.729C1391.42 864.727 1391.42 864.727 1379.45 858.308C1348.99 841.974 1318.57 825.573 1288.03 809.381C1283.5 806.952 1281.74 805.449 1285.54 800.325C1335.63 732.709 1402.85 701.759 1486.28 710.747C1576.2 720.41 1647.26 784.09 1669.44 871.544C1680.56 915.391 1677.63 958.642 1661.36 1000.91C1658.63 1008 1658.56 1007.99 1651.69 1004.31C1635.4 995.563 1619.1 986.818 1602.81 978.077Z" fill="#FCD583" fill-opacity="0.5"/>
<path d="M1492.95 868.534C1524.13 885.711 1534.71 923.273 1517.27 954.871C1500.52 985.209 1462.75 995.721 1431.59 978.715C1424.32 974.756 1417.9 969.403 1412.7 962.963C1407.51 956.522 1403.64 949.122 1401.31 941.185C1398.98 933.248 1398.24 924.931 1399.13 916.711C1400.03 908.492 1402.54 900.531 1406.52 893.286C1423.77 862.081 1461.57 851.249 1492.95 868.534Z" fill="#FCD583" fill-opacity="0.5"/>
</g>
<g clip-path="url(#clip7_200_3926)">
<path d="M138.908 804.444C155.39 813.282 171.824 822.219 188.4 830.881C191.795 832.654 192.614 834.33 191.643 838.136C182.087 876.821 200.351 917.233 235.855 936.378C253.025 945.648 272.784 948.965 292.04 945.811C311.296 942.656 328.963 933.208 342.278 918.944C345.043 916.005 346.792 915.813 350.123 917.617C383.204 935.494 416.345 953.265 449.545 970.928C453.238 972.909 453.569 973.978 451.08 977.642C402.807 1048.7 312.591 1085.01 225.974 1062.12C155.046 1043.38 105.944 998.857 80.1187 929.99C62.4964 883.039 63.1775 835.553 79.2203 788.197C83.7403 774.856 83.7076 774.851 96.2422 781.572L138.908 804.444Z" fill="#FCD583" fill-opacity="0.5"/>
<path d="M416.187 912.229C400.056 903.579 383.985 894.807 367.747 886.367C363.87 884.354 363.044 882.223 363.959 878.012C371.998 841.081 356.368 802.842 325.838 784.231C291.445 763.257 251.74 765.47 221.258 790.057C220.344 790.797 219.455 791.58 218.597 792.381C209.116 801.194 209.116 801.194 197.389 794.906C167.551 778.907 137.755 762.84 107.842 746.979C103.406 744.6 101.681 743.128 105.4 738.109C154.469 671.875 220.312 641.557 302.037 650.362C390.126 659.826 459.732 722.205 481.459 807.872C492.352 850.823 489.475 893.19 473.546 934.592C470.866 941.542 470.801 941.531 464.071 937.929C448.109 929.357 432.147 920.791 416.187 912.229Z" fill="#FCD583" fill-opacity="0.5"/>
<path d="M308.592 804.893C339.137 821.719 349.497 858.513 332.416 889.466C316.009 919.184 279.005 929.481 248.48 912.823C241.359 908.945 235.074 903.701 229.984 897.392C224.894 891.084 221.1 883.834 218.819 876.059C216.537 868.284 215.814 860.138 216.69 852.086C217.566 844.034 220.025 836.236 223.924 829.139C240.823 798.572 277.849 787.962 308.592 804.893Z" fill="#FCD583" fill-opacity="0.5"/>
</g>
<g clip-path="url(#clip8_200_3926)">
<path d="M778.908 1139.44C795.39 1148.28 811.824 1157.22 828.4 1165.88C831.795 1167.65 832.614 1169.33 831.643 1173.14C822.087 1211.82 840.351 1252.23 875.855 1271.38C893.025 1280.65 912.784 1283.96 932.04 1280.81C951.296 1277.66 968.963 1268.21 982.278 1253.94C985.043 1251 986.792 1250.81 990.123 1252.62C1023.2 1270.49 1056.34 1288.26 1089.54 1305.93C1093.24 1307.91 1093.57 1308.98 1091.08 1312.64C1042.81 1383.7 952.591 1420.01 865.974 1397.12C795.046 1378.38 745.944 1333.86 720.119 1264.99C702.496 1218.04 703.177 1170.55 719.22 1123.2C723.74 1109.86 723.708 1109.85 736.242 1116.57L778.908 1139.44Z" fill="#FCD583" fill-opacity="0.5"/>
<path d="M1056.19 1247.23C1040.06 1238.58 1023.98 1229.81 1007.75 1221.37C1003.87 1219.35 1003.04 1217.22 1003.96 1213.01C1012 1176.08 996.368 1137.84 965.838 1119.23C931.445 1098.26 891.74 1100.47 861.258 1125.06C860.344 1125.8 859.455 1126.58 858.597 1127.38C849.116 1136.19 849.116 1136.19 837.389 1129.91C807.551 1113.91 777.755 1097.84 747.842 1081.98C743.406 1079.6 741.681 1078.13 745.4 1073.11C794.469 1006.87 860.312 976.557 942.037 985.362C1030.13 994.826 1099.73 1057.2 1121.46 1142.87C1132.35 1185.82 1129.48 1228.19 1113.55 1269.59C1110.87 1276.54 1110.8 1276.53 1104.07 1272.93C1088.11 1264.36 1072.15 1255.79 1056.19 1247.23Z" fill="#FCD583" fill-opacity="0.5"/>
<path d="M948.592 1139.89C979.137 1156.72 989.497 1193.51 972.416 1224.47C956.009 1254.18 919.005 1264.48 888.48 1247.82C881.359 1243.94 875.074 1238.7 869.984 1232.39C864.894 1226.08 861.1 1218.83 858.819 1211.06C856.537 1203.28 855.814 1195.14 856.69 1187.09C857.566 1179.03 860.025 1171.24 863.924 1164.14C880.823 1133.57 917.849 1122.96 948.592 1139.89Z" fill="#FCD583" fill-opacity="0.5"/>
</g>
<g clip-path="url(#clip9_200_3926)">
<path d="M-86.0918 1411.44C-69.61 1420.28 -53.1755 1429.22 -36.5996 1437.88C-33.205 1439.65 -32.3856 1441.33 -33.3568 1445.14C-42.913 1483.82 -24.6493 1524.23 10.8553 1543.38C28.0253 1552.65 47.7838 1555.96 67.0397 1552.81C86.2957 1549.66 103.963 1540.21 117.278 1525.94C120.043 1523 121.792 1522.81 125.123 1524.62C158.204 1542.49 191.345 1560.26 224.545 1577.93C228.238 1579.91 228.569 1580.98 226.08 1584.64C177.807 1655.7 87.5914 1692.01 0.973747 1669.12C-69.9537 1650.38 -119.056 1605.86 -144.881 1536.99C-162.504 1490.04 -161.823 1442.55 -145.78 1395.2C-141.26 1381.86 -141.292 1381.85 -128.758 1388.57L-86.0918 1411.44Z" fill="#FCD583" fill-opacity="0.5"/>
<path d="M191.187 1519.23C175.056 1510.58 158.985 1501.81 142.747 1493.37C138.87 1491.35 138.044 1489.22 138.959 1485.01C146.998 1448.08 131.368 1409.84 100.838 1391.23C66.4448 1370.26 26.7397 1372.47 -3.74183 1397.06C-4.65593 1397.8 -5.54548 1398.58 -6.40271 1399.38C-15.884 1408.19 -15.884 1408.19 -27.6106 1401.91C-57.4487 1385.91 -87.2451 1369.84 -117.158 1353.98C-121.594 1351.6 -123.319 1350.13 -119.6 1345.11C-70.5311 1278.87 -4.68778 1248.56 77.0374 1257.36C165.126 1266.83 234.732 1329.2 256.459 1414.87C267.352 1457.82 264.475 1500.19 248.546 1541.59C245.866 1548.54 245.801 1548.53 239.071 1544.93C223.109 1536.36 207.147 1527.79 191.187 1519.23Z" fill="#FCD583" fill-opacity="0.5"/>
<path d="M83.5918 1411.89C114.137 1428.72 124.497 1465.51 107.416 1496.47C91.0086 1526.18 54.0054 1536.48 23.4795 1519.82C16.3595 1515.94 10.0742 1510.7 4.9843 1504.39C-0.105643 1498.08 -3.9001 1490.83 -6.18146 1483.06C-8.46283 1475.28 -9.1862 1467.14 -8.31005 1459.09C-7.43389 1451.03 -4.97545 1443.24 -1.07578 1436.14C15.823 1405.57 52.8494 1394.96 83.5918 1411.89Z" fill="#FCD583" fill-opacity="0.5"/>
</g>
</g>
<defs>
<filter id="filter0_d_200_3926" x="0" y="0" width="2508" height="1508" filterUnits="userSpaceOnUse" color-interpolation-filters="sRGB">
<feFlood flood-opacity="0" result="BackgroundImageFix"/>
<feColorMatrix in="SourceAlpha" type="matrix" values="0 0 0 0 0 0 0 0 0 0 0 0 0 0 0 0 0 0 127 0" result="hardAlpha"/>
<feOffset dy="4"/>
<feGaussianBlur stdDeviation="2"/>
<feComposite in2="hardAlpha" operator="out"/>
<feColorMatrix type="matrix" values="0 0 0 0 0 0 0 0 0 0 0 0 0 0 0 0 0 0 0.25 0"/>
<feBlend mode="normal" in2="BackgroundImageFix" result="effect1_dropShadow_200_3926"/>
<feBlend mode="normal" in="SourceGraphic" in2="effect1_dropShadow_200_3926" result="shape"/>
</filter>
<clipPath id="clip0_200_3926">
<rect width="2500" height="1500" fill="white" transform="translate(4)"/>
</clipPath>
<clipPath id="clip1_200_3926">
<rect width="426.005" height="425.452" fill="white" transform="translate(79.0527 -138) rotate(28.2008)"/>
</clipPath>
<clipPath id="clip2_200_3926">
<rect width="462.957" height="462.357" fill="white" transform="translate(1233.49 -126) rotate(28.2008)"/>
</clipPath>
<clipPath id="clip3_200_3926">
<rect width="437.79" height="437.222" fill="white" transform="translate(753.711 179) rotate(28.2008)"/>
</clipPath>
<clipPath id="clip4_200_3926">
<rect width="437.79" height="437.222" fill="white" transform="translate(1957.62 959) rotate(28.2008)"/>
</clipPath>
<clipPath id="clip5_200_3926">
<rect width="437.79" height="437.222" fill="white" transform="translate(1940.62 266) rotate(28.2008)"/>
</clipPath>
<clipPath id="clip6_200_3926">
<rect width="486.727" height="486.096" fill="white" transform="translate(1361.71 594) rotate(28.2008)"/>
</clipPath>
<clipPath id="clip7_200_3926">
<rect width="476.781" height="476.163" fill="white" transform="translate(180.017 536) rotate(28.2008)"/>
</clipPath>
<clipPath id="clip8_200_3926">
<rect width="476.781" height="476.163" fill="white" transform="translate(820.017 871) rotate(28.2008)"/>
</clipPath>
<clipPath id="clip9_200_3926">
<rect width="476.781" height="476.163" fill="white" transform="translate(-44.9834 1143) rotate(28.2008)"/>
</clipPath>
</defs>
</svg>
