<svg width="1728" height="3900" viewBox="0 0 1728 3900" fill="none" xmlns="http://www.w3.org/2000/svg">
<mask id="mask0_44_4465" style="mask-type:luminance" maskUnits="userSpaceOnUse" x="0" y="0" width="1728" height="4828">
<path d="M1728 0H0V4828H1728V0Z" fill="white"/>
</mask>
<g mask="url(#mask0_44_4465)">
<path d="M1728 0H0V4828H1728V0Z" fill="url(#paint0_linear_44_4465)"/>
<g opacity="0.5">
<path d="M216.055 185.795C279.729 122.402 279.959 19.391 216.568 -44.2858C153.176 -107.963 50.1689 -108.192 -13.5059 -44.799C-77.1807 18.5944 -77.4105 121.605 -14.0191 185.282C49.3723 248.959 152.38 249.188 216.055 185.795Z" stroke="#5B0B0B"/>
<path d="M138.5 107.892C159.152 87.3317 159.226 53.9228 138.667 33.2708C118.107 12.6189 84.6995 12.5444 64.0482 33.1044C43.3969 53.6644 43.3224 87.0733 63.8818 107.725C84.4411 128.377 117.849 128.452 138.5 107.892Z" stroke="#5B0B0B"/>
<path d="M122.989 92.311C135.036 80.3176 135.079 60.8291 123.087 48.7822C111.094 36.7352 91.6057 36.6917 79.5591 48.6851C67.5125 60.6784 67.469 80.1669 79.462 92.2139C91.455 104.261 110.943 104.304 122.989 92.311Z" stroke="#5B0B0B"/>
<path d="M59.2355 99.9418L-20.509 179.333" stroke="#5B0B0B"/>
<path d="M211.139 -48.1877C211.999 -49.0442 212.002 -50.4363 211.145 -51.2968C210.289 -52.1573 208.897 -52.1604 208.036 -51.3039L211.139 -48.1877ZM208.036 -51.3039L129.353 27.0316L132.455 30.1477L211.139 -48.1877L208.036 -51.3039Z" fill="#5B0B0B"/>
<path d="M68.5422 109.29L-11.2024 188.682" stroke="#5B0B0B"/>
<path d="M220.445 -38.8392C221.306 -39.6959 221.309 -41.0879 220.452 -41.9484C219.595 -42.8089 218.203 -42.812 217.343 -41.9553L220.445 -38.8392ZM217.343 -41.9553L138.66 36.38L141.762 39.4962L220.445 -38.8392L217.343 -41.9553Z" fill="#5B0B0B"/>
</g>
<g opacity="0.5">
<path d="M675.357 557.004C741.492 487.794 739.001 378.073 669.793 311.935C600.585 245.798 490.867 248.289 424.732 317.5C358.597 386.71 361.088 496.431 430.296 562.568C499.505 628.706 609.222 626.215 675.357 557.004Z" stroke="#5B0B0B"/>
<path d="M590.756 476.157C612.242 453.672 611.432 418.026 588.948 396.539C566.464 375.053 530.819 375.862 509.333 398.347C487.847 420.832 488.657 456.478 511.141 477.965C533.625 499.451 569.27 498.642 590.756 476.157Z" stroke="#5B0B0B"/>
<path d="M573.836 459.987C586.392 446.847 585.919 426.017 572.779 413.46C559.64 400.904 538.81 401.377 526.254 414.517C513.698 427.656 514.171 448.487 527.31 461.044C540.449 473.6 561.28 473.127 573.836 459.987Z" stroke="#5B0B0B"/>
<path d="M506.088 469.701L423.33 556.306" stroke="#5B0B0B"/>
<path d="M663.71 307.932C664.55 307.054 664.519 305.662 663.64 304.824C662.765 303.985 661.371 304.016 660.531 304.894L663.71 307.932ZM660.531 304.894L578.875 390.348L582.054 393.385L663.71 307.932L660.531 304.894Z" fill="#5B0B0B"/>
<path d="M516.241 479.405L433.482 566.01" stroke="#5B0B0B"/>
<path d="M673.863 317.634C674.702 316.756 674.672 315.364 673.792 314.525C672.917 313.686 671.523 313.718 670.684 314.596L673.863 317.634ZM670.684 314.596L589.028 400.049L592.207 403.087L673.863 317.634L670.684 314.596Z" fill="#5B0B0B"/>
</g>
<g opacity="0.5">
<path d="M70.3509 956.366C151.701 956.366 217.649 890.417 217.649 809.064C217.649 727.711 151.701 661.761 70.3509 661.761C-10.9993 661.761 -76.9468 727.711 -76.9468 809.064C-76.9468 890.417 -10.9993 956.366 70.3509 956.366Z" stroke="#5B0B0B"/>
<path d="M70.351 856.699C96.6582 856.699 117.984 835.372 117.984 809.064C117.984 782.756 96.6582 761.429 70.351 761.429C44.0437 761.429 22.7175 782.756 22.7175 809.064C22.7175 835.372 44.0437 856.699 70.351 856.699Z" stroke="#5B0B0B"/>
<path d="M70.3509 836.765C85.6496 836.765 98.0517 824.363 98.0517 809.064C98.0517 793.765 85.6496 781.362 70.3509 781.362C55.0522 781.362 42.6501 793.765 42.6501 809.064C42.6501 824.363 55.0522 836.765 70.3509 836.765Z" stroke="#5B0B0B"/>
<path d="M24.5054 801.092H-77.5171" stroke="#5B0B0B"/>
<path d="M216.861 803.29C218.075 803.29 219.06 802.305 219.06 801.092C219.06 799.878 218.075 798.893 216.861 798.893V803.29ZM216.861 798.893H116.196V803.29H216.861V798.893Z" fill="#5B0B0B"/>
<path d="M24.5054 813.052H-77.5171" stroke="#5B0B0B"/>
<path d="M216.861 815.25C218.075 815.25 219.06 814.266 219.06 813.052C219.06 811.838 218.075 810.853 216.861 810.853V815.25ZM216.861 810.853H116.196V815.25H216.861V810.853Z" fill="#5B0B0B"/>
</g>
<g opacity="0.5">
<path d="M1615.88 279.215C1705.73 279.215 1778.56 206.375 1778.56 116.523C1778.56 26.6704 1705.73 -46.1694 1615.88 -46.1694C1526.03 -46.1694 1453.19 26.6704 1453.19 116.523C1453.19 206.375 1526.03 279.215 1615.88 279.215Z" stroke="#5B0B0B"/>
<path d="M1615.88 169.288C1645.02 169.288 1668.64 145.664 1668.64 116.523C1668.64 87.3815 1645.02 63.7577 1615.88 63.7577C1586.74 63.7577 1563.11 87.3815 1563.11 116.523C1563.11 145.664 1586.74 169.288 1615.88 169.288Z" stroke="#5B0B0B"/>
<path d="M1615.88 147.302C1632.88 147.302 1646.66 133.522 1646.66 116.523C1646.66 99.5237 1632.88 85.7432 1615.88 85.7432C1598.88 85.7432 1585.1 99.5237 1585.1 116.523C1585.1 133.522 1598.88 147.302 1615.88 147.302Z" stroke="#5B0B0B"/>
<path d="M1565.31 107.729H1452.79" stroke="#5B0B0B"/>
<path d="M1777.47 109.927C1778.68 109.927 1779.67 108.943 1779.67 107.729C1779.67 106.515 1778.68 105.53 1777.47 105.53V109.927ZM1777.47 105.53H1666.44V109.927H1777.47V105.53Z" fill="#5B0B0B"/>
<path d="M1565.31 120.92H1452.79" stroke="#5B0B0B"/>
<path d="M1777.47 123.118C1778.68 123.118 1779.67 122.134 1779.67 120.92C1779.67 119.706 1778.68 118.721 1777.47 118.721V123.118ZM1777.47 118.721H1666.44V123.118H1777.47V118.721Z" fill="#5B0B0B"/>
</g>
<g opacity="0.5">
<path d="M1064.06 305.597C1142.98 305.597 1206.96 241.617 1206.96 162.692C1206.96 83.7678 1142.98 19.7869 1064.06 19.7869C985.139 19.7869 921.16 83.7678 921.16 162.692C921.16 241.617 985.139 305.597 1064.06 305.597Z" stroke="#5B0B0B"/>
<path d="M1064.06 208.862C1089.56 208.862 1110.23 188.191 1110.23 162.692C1110.23 137.194 1089.56 116.523 1064.06 116.523C1038.56 116.523 1017.89 137.194 1017.89 162.692C1017.89 188.191 1038.56 208.862 1064.06 208.862Z" stroke="#5B0B0B"/>
<path d="M1064.06 189.514C1078.87 189.514 1090.88 177.506 1090.88 162.692C1090.88 147.879 1078.87 135.87 1064.06 135.87C1049.25 135.87 1037.24 147.879 1037.24 162.692C1037.24 177.506 1049.25 189.514 1064.06 189.514Z" stroke="#5B0B0B"/>
<path d="M1019.56 154.953H920.54" stroke="#5B0B0B"/>
<path d="M1206.26 157.152C1207.48 157.152 1208.46 156.167 1208.46 154.953C1208.46 153.739 1207.48 152.755 1206.26 152.755V157.152ZM1206.26 152.755H1108.56V157.152H1206.26V152.755Z" fill="#5B0B0B"/>
<path d="M1019.56 166.562H920.54" stroke="#5B0B0B"/>
<path d="M1206.26 168.76C1207.48 168.76 1208.46 167.776 1208.46 166.562C1208.46 165.348 1207.48 164.363 1206.26 164.363V168.76ZM1206.26 164.363H1108.56V168.76H1206.26V164.363Z" fill="#5B0B0B"/>
</g>
<g opacity="0.5">
<path d="M220.205 2170.68C301.753 2170.68 367.861 2104.57 367.861 2023.02C367.861 1941.46 301.753 1875.36 220.205 1875.36C138.657 1875.36 72.5496 1941.46 72.5496 2023.02C72.5496 2104.57 138.657 2170.68 220.205 2170.68Z" stroke="#5B0B0B"/>
<path d="M220.205 2070.77C246.578 2070.77 267.958 2049.39 267.958 2023.02C267.958 1996.64 246.578 1975.26 220.205 1975.26C193.832 1975.26 172.452 1996.64 172.452 2023.02C172.452 2049.39 193.832 2070.77 220.205 2070.77Z" stroke="#5B0B0B"/>
<path d="M220.205 2050.79C235.543 2050.79 247.978 2038.35 247.978 2023.02C247.978 2007.68 235.543 1995.24 220.205 1995.24C204.867 1995.24 192.433 2007.68 192.433 2023.02C192.433 2038.35 204.867 2050.79 220.205 2050.79Z" stroke="#5B0B0B"/>
<path d="M174.25 2015.03H71.9832" stroke="#5B0B0B"/>
<path d="M367.066 2017.22C368.28 2017.22 369.265 2016.24 369.265 2015.03C369.265 2013.81 368.28 2012.83 367.066 2012.83V2017.22ZM367.066 2012.83H266.16V2017.22H367.066V2012.83Z" fill="#5B0B0B"/>
<path d="M174.25 2027.01H71.9832" stroke="#5B0B0B"/>
<path d="M367.066 2029.21C368.28 2029.21 369.265 2028.23 369.265 2027.01C369.265 2025.8 368.28 2024.81 367.066 2024.81V2029.21ZM367.066 2024.81H266.16V2029.21H367.066V2024.81Z" fill="#5B0B0B"/>
</g>
<g opacity="0.5">
<path d="M897.333 1871.67C978.881 1871.67 1044.99 1805.56 1044.99 1724.01C1044.99 1642.46 978.881 1576.35 897.333 1576.35C815.785 1576.35 749.677 1642.46 749.677 1724.01C749.677 1805.56 815.785 1871.67 897.333 1871.67Z" stroke="#5B0B0B"/>
<path d="M897.333 1771.77C923.706 1771.77 945.086 1750.39 945.086 1724.01C945.086 1697.64 923.706 1676.26 897.333 1676.26C870.96 1676.26 849.58 1697.64 849.58 1724.01C849.58 1750.39 870.96 1771.77 897.333 1771.77Z" stroke="#5B0B0B"/>
<path d="M897.333 1751.79C912.671 1751.79 925.105 1739.35 925.105 1724.01C925.105 1708.67 912.671 1696.24 897.333 1696.24C881.995 1696.24 869.561 1708.67 869.561 1724.01C869.561 1739.35 881.995 1751.79 897.333 1751.79Z" stroke="#5B0B0B"/>
<path d="M851.381 1716.02H749.112" stroke="#5B0B0B"/>
<path d="M1044.2 1718.22C1045.41 1718.22 1046.39 1717.24 1046.39 1716.02C1046.39 1714.81 1045.41 1713.83 1044.2 1713.83V1718.22ZM1044.2 1713.83H943.29V1718.22H1044.2V1713.83Z" fill="#5B0B0B"/>
<path d="M851.381 1728.01H749.112" stroke="#5B0B0B"/>
<path d="M1044.2 1730.21C1045.41 1730.21 1046.39 1729.22 1046.39 1728.01C1046.39 1726.8 1045.41 1725.81 1044.2 1725.81V1730.21ZM1044.2 1725.81H943.29V1730.21H1044.2V1725.81Z" fill="#5B0B0B"/>
</g>
<g opacity="0.5">
<path d="M1389.79 2271.81C1471.34 2271.81 1537.45 2205.7 1537.45 2124.15C1537.45 2042.6 1471.34 1976.49 1389.79 1976.49C1308.24 1976.49 1242.14 2042.6 1242.14 2124.15C1242.14 2205.7 1308.24 2271.81 1389.79 2271.81Z" stroke="#5B0B0B"/>
<path d="M1389.79 2171.9C1416.16 2171.9 1437.54 2150.52 1437.54 2124.15C1437.54 2097.77 1416.16 2076.39 1389.79 2076.39C1363.42 2076.39 1342.04 2097.77 1342.04 2124.15C1342.04 2150.52 1363.42 2171.9 1389.79 2171.9Z" stroke="#5B0B0B"/>
<path d="M1389.79 2151.92C1405.13 2151.92 1417.56 2139.49 1417.56 2124.15C1417.56 2108.81 1405.13 2096.38 1389.79 2096.38C1374.45 2096.38 1362.02 2108.81 1362.02 2124.15C1362.02 2139.49 1374.45 2151.92 1389.79 2151.92Z" stroke="#5B0B0B"/>
<path d="M1343.84 2116.16H1241.57" stroke="#5B0B0B"/>
<path d="M1536.65 2118.36C1537.87 2118.36 1538.85 2117.37 1538.85 2116.16C1538.85 2114.95 1537.87 2113.96 1536.65 2113.96V2118.36ZM1536.65 2113.96H1435.75V2118.36H1536.65V2113.96Z" fill="#5B0B0B"/>
<path d="M1343.84 2128.15H1241.57" stroke="#5B0B0B"/>
<path d="M1536.65 2130.34C1537.87 2130.34 1538.85 2129.36 1538.85 2128.15C1538.85 2126.93 1537.87 2125.95 1536.65 2125.95V2130.34ZM1536.65 2125.95H1435.75V2130.34H1536.65V2125.95Z" fill="#5B0B0B"/>
</g>
<g opacity="0.5">
<path d="M538.485 2621.37C604.014 2621.37 657.137 2568.25 657.137 2502.72C657.137 2437.18 604.014 2384.06 538.485 2384.06C472.956 2384.06 419.833 2437.18 419.833 2502.72C419.833 2568.25 472.956 2621.37 538.485 2621.37Z" stroke="#5B0B0B"/>
<path d="M538.485 2540.8C559.519 2540.8 576.57 2523.75 576.57 2502.72C576.57 2481.68 559.519 2464.63 538.485 2464.63C517.451 2464.63 500.4 2481.68 500.4 2502.72C500.4 2523.75 517.451 2540.8 538.485 2540.8Z" stroke="#5B0B0B"/>
<path d="M538.485 2524.69C550.62 2524.69 560.456 2514.85 560.456 2502.72C560.456 2490.58 550.62 2480.74 538.485 2480.74C526.35 2480.74 516.513 2490.58 516.513 2502.72C516.513 2514.85 526.35 2524.69 538.485 2524.69Z" stroke="#5B0B0B"/>
<path d="M502.276 2496.12H421.693" stroke="#5B0B0B"/>
<path d="M654.208 2498.31C655.422 2498.31 656.407 2497.33 656.407 2496.12C656.407 2494.9 655.422 2493.92 654.208 2493.92V2498.31ZM654.208 2493.92H574.698V2498.31H654.208V2493.92Z" fill="#5B0B0B"/>
<path d="M502.276 2506.01H421.693" stroke="#5B0B0B"/>
<path d="M654.208 2508.21C655.422 2508.21 656.407 2507.23 656.407 2506.01C656.407 2504.8 655.422 2503.81 654.208 2503.81V2508.21ZM654.208 2503.81H574.698V2508.21H654.208V2503.81Z" fill="#5B0B0B"/>
<g opacity="0.5">
<path d="M538.485 2621.37C604.014 2621.37 657.137 2568.25 657.137 2502.72C657.137 2437.18 604.014 2384.06 538.485 2384.06C472.956 2384.06 419.833 2437.18 419.833 2502.72C419.833 2568.25 472.956 2621.37 538.485 2621.37Z" stroke="#5B0B0B"/>
<path d="M538.485 2540.8C559.519 2540.8 576.57 2523.75 576.57 2502.72C576.57 2481.68 559.519 2464.63 538.485 2464.63C517.451 2464.63 500.4 2481.68 500.4 2502.72C500.4 2523.75 517.451 2540.8 538.485 2540.8Z" stroke="#5B0B0B"/>
<path d="M538.485 2524.69C550.62 2524.69 560.456 2514.85 560.456 2502.72C560.456 2490.58 550.62 2480.74 538.485 2480.74C526.35 2480.74 516.513 2490.58 516.513 2502.72C516.513 2514.85 526.35 2524.69 538.485 2524.69Z" stroke="#5B0B0B"/>
<path d="M501.428 2496.27H418.953" stroke="#5B0B0B"/>
<path d="M656.921 2498.47C658.139 2498.47 659.12 2497.48 659.12 2496.27C659.12 2495.06 658.139 2494.07 656.921 2494.07V2498.47ZM656.921 2494.07H575.547V2498.47H656.921V2494.07Z" fill="#5B0B0B"/>
<path d="M501.428 2505.94H418.953" stroke="#5B0B0B"/>
<path d="M656.921 2508.14C658.139 2508.14 659.12 2507.15 659.12 2505.94C659.12 2504.72 658.139 2503.74 656.921 2503.74V2508.14ZM656.921 2503.74H575.547V2508.14H656.921V2503.74Z" fill="#5B0B0B"/>
</g>
<g opacity="0.5">
<path d="M916.829 2868.16C982.359 2868.16 1035.48 2815.03 1035.48 2749.5C1035.48 2683.97 982.359 2630.85 916.829 2630.85C851.3 2630.85 798.177 2683.97 798.177 2749.5C798.177 2815.03 851.3 2868.16 916.829 2868.16Z" stroke="#5B0B0B"/>
<path d="M916.829 2787.59C937.863 2787.59 954.914 2770.54 954.914 2749.5C954.914 2728.47 937.863 2711.42 916.829 2711.42C895.795 2711.42 878.744 2728.47 878.744 2749.5C878.744 2770.54 895.795 2787.59 916.829 2787.59Z" stroke="#5B0B0B"/>
<path d="M916.829 2771.47C928.964 2771.47 938.801 2761.64 938.801 2749.5C938.801 2737.37 928.964 2727.53 916.829 2727.53C904.695 2727.53 894.858 2737.37 894.858 2749.5C894.858 2761.64 904.695 2771.47 916.829 2771.47Z" stroke="#5B0B0B"/>
<path d="M879.767 2743.06H797.294" stroke="#5B0B0B"/>
<path d="M1035.27 2745.25C1036.48 2745.25 1037.46 2744.27 1037.46 2743.06C1037.46 2741.84 1036.48 2740.86 1035.27 2740.86V2745.25ZM1035.27 2740.86H953.891V2745.25H1035.27V2740.86Z" fill="#5B0B0B"/>
<path d="M879.767 2752.72H797.294" stroke="#5B0B0B"/>
<path d="M1035.27 2754.92C1036.48 2754.92 1037.46 2753.94 1037.46 2752.72C1037.46 2751.51 1036.48 2750.52 1035.27 2750.52V2754.92ZM1035.27 2750.52H953.891V2754.92H1035.27V2750.52Z" fill="#5B0B0B"/>
</g>
<g opacity="0.5">
<path d="M257.155 3066.97C322.685 3066.97 375.807 3013.84 375.807 2948.31C375.807 2882.78 322.685 2829.66 257.155 2829.66C191.626 2829.66 138.504 2882.78 138.504 2948.31C138.504 3013.84 191.626 3066.97 257.155 3066.97Z" stroke="#5B0B0B"/>
<path d="M257.155 2986.4C278.189 2986.4 295.24 2969.35 295.24 2948.31C295.24 2927.28 278.189 2910.23 257.155 2910.23C236.121 2910.23 219.07 2927.28 219.07 2948.31C219.07 2969.35 236.121 2986.4 257.155 2986.4Z" stroke="#5B0B0B"/>
<path d="M257.155 2970.28C269.29 2970.28 279.127 2960.45 279.127 2948.31C279.127 2936.18 269.29 2926.34 257.155 2926.34C245.021 2926.34 235.184 2936.18 235.184 2948.31C235.184 2960.45 245.021 2970.28 257.155 2970.28Z" stroke="#5B0B0B"/>
<path d="M220.095 2941.87H137.621" stroke="#5B0B0B"/>
<path d="M375.591 2944.06C376.805 2944.06 377.79 2943.08 377.79 2941.87C377.79 2940.65 376.805 2939.67 375.591 2939.67V2944.06ZM375.591 2939.67H294.216V2944.06H375.591V2939.67Z" fill="#5B0B0B"/>
<path d="M220.095 2951.53H137.621" stroke="#5B0B0B"/>
<path d="M375.591 2953.73C376.805 2953.73 377.79 2952.75 377.79 2951.53C377.79 2950.32 376.805 2949.34 375.591 2949.34V2953.73ZM375.591 2949.34H294.216V2953.73H375.591V2949.34Z" fill="#5B0B0B"/>
</g>
<g opacity="0.5">
<path d="M815.66 2411.67C881.189 2411.67 934.311 2358.55 934.311 2293.01C934.311 2227.48 881.189 2174.36 815.66 2174.36C750.13 2174.36 697.008 2227.48 697.008 2293.01C697.008 2358.55 750.13 2411.67 815.66 2411.67Z" stroke="#5B0B0B"/>
<path d="M815.66 2331.1C836.693 2331.1 853.745 2314.05 853.745 2293.01C853.745 2271.98 836.693 2254.93 815.66 2254.93C794.626 2254.93 777.575 2271.98 777.575 2293.01C777.575 2314.05 794.626 2331.1 815.66 2331.1Z" stroke="#5B0B0B"/>
<path d="M815.66 2314.99C827.794 2314.99 837.631 2305.15 837.631 2293.01C837.631 2280.88 827.794 2271.04 815.66 2271.04C803.525 2271.04 793.688 2280.88 793.688 2293.01C793.688 2305.15 803.525 2314.99 815.66 2314.99Z" stroke="#5B0B0B"/>
<path d="M778.598 2286.57H696.124" stroke="#5B0B0B"/>
<path d="M934.096 2288.77C935.309 2288.77 936.294 2287.78 936.294 2286.57C936.294 2285.35 935.309 2284.37 934.096 2284.37V2288.77ZM934.096 2284.37H852.722V2288.77H934.096V2284.37Z" fill="#5B0B0B"/>
<path d="M778.598 2296.24H696.124" stroke="#5B0B0B"/>
<path d="M934.096 2298.44C935.309 2298.44 936.294 2297.45 936.294 2296.24C936.294 2295.02 935.309 2294.04 934.096 2294.04V2298.44ZM934.096 2294.04H852.722V2298.44H934.096V2294.04Z" fill="#5B0B0B"/>
</g>
</g>
<g opacity="0.5">
<g opacity="0.5">
<path d="M1488.39 4113.34C1553.92 4113.34 1607.04 4060.22 1607.04 3994.69C1607.04 3929.15 1553.92 3876.03 1488.39 3876.03C1422.86 3876.03 1369.74 3929.15 1369.74 3994.69C1369.74 4060.22 1422.86 4113.34 1488.39 4113.34Z" stroke="#5B0B0B"/>
</g>
</g>
<g opacity="0.5">
<path d="M410.976 3610.72C476.505 3610.72 529.627 3557.59 529.627 3492.06C529.627 3426.53 476.505 3373.4 410.976 3373.4C345.446 3373.4 292.324 3426.53 292.324 3492.06C292.324 3557.59 345.446 3610.72 410.976 3610.72Z" stroke="#5B0B0B"/>
<path d="M410.975 3530.15C432.009 3530.15 449.06 3513.09 449.06 3492.06C449.06 3471.03 432.009 3453.97 410.975 3453.97C389.942 3453.97 372.891 3471.03 372.891 3492.06C372.891 3513.09 389.942 3530.15 410.975 3530.15Z" stroke="#5B0B0B"/>
<path d="M410.975 3514.03C423.11 3514.03 432.947 3504.19 432.947 3492.06C432.947 3479.92 423.11 3470.09 410.975 3470.09C398.841 3470.09 389.004 3479.92 389.004 3492.06C389.004 3504.19 398.841 3514.03 410.975 3514.03Z" stroke="#5B0B0B"/>
<path d="M374.764 3485.46H294.181" stroke="#5B0B0B"/>
<path d="M526.697 3487.66C527.91 3487.66 528.895 3486.67 528.895 3485.46C528.895 3484.25 527.91 3483.26 526.697 3483.26V3487.66ZM526.697 3483.26H447.187V3487.66H526.697V3483.26Z" fill="#5B0B0B"/>
<path d="M374.764 3495.36H294.181" stroke="#5B0B0B"/>
<path d="M526.697 3497.56C527.91 3497.56 528.895 3496.57 528.895 3495.36C528.895 3494.14 527.91 3493.16 526.697 3493.16V3497.56ZM526.697 3493.16H447.187V3497.56H526.697V3493.16Z" fill="#5B0B0B"/>
<g opacity="0.5">
<path d="M410.976 3610.72C476.505 3610.72 529.627 3557.59 529.627 3492.06C529.627 3426.53 476.505 3373.4 410.976 3373.4C345.446 3373.4 292.324 3426.53 292.324 3492.06C292.324 3557.59 345.446 3610.72 410.976 3610.72Z" stroke="#5B0B0B"/>
<path d="M410.975 3530.15C432.009 3530.15 449.06 3513.09 449.06 3492.06C449.06 3471.03 432.009 3453.97 410.975 3453.97C389.942 3453.97 372.89 3471.03 372.89 3492.06C372.89 3513.09 389.942 3530.15 410.975 3530.15Z" stroke="#5B0B0B"/>
<path d="M410.975 3514.03C423.11 3514.03 432.947 3504.19 432.947 3492.06C432.947 3479.92 423.11 3470.09 410.975 3470.09C398.841 3470.09 389.004 3479.92 389.004 3492.06C389.004 3504.19 398.841 3514.03 410.975 3514.03Z" stroke="#5B0B0B"/>
<path d="M373.915 3485.61H291.442" stroke="#5B0B0B"/>
<path d="M529.41 3487.81C530.628 3487.81 531.608 3486.83 531.608 3485.61C531.608 3484.4 530.628 3483.42 529.41 3483.42V3487.81ZM529.41 3483.42H448.035V3487.81H529.41V3483.42Z" fill="#5B0B0B"/>
<path d="M373.915 3495.28H291.442" stroke="#5B0B0B"/>
<path d="M529.41 3497.48C530.628 3497.48 531.608 3496.5 531.608 3495.28C531.608 3494.06 530.628 3493.08 529.41 3493.08V3497.48ZM529.41 3493.08H448.035V3497.48H529.41V3493.08Z" fill="#5B0B0B"/>
</g>
<g opacity="0.5">
<path d="M789.318 3857.5C854.847 3857.5 907.969 3804.38 907.969 3738.85C907.969 3673.31 854.847 3620.19 789.318 3620.19C723.788 3620.19 670.666 3673.31 670.666 3738.85C670.666 3804.38 723.788 3857.5 789.318 3857.5Z" stroke="#5B0B0B"/>
<path d="M789.318 3776.93C810.351 3776.93 827.402 3759.88 827.402 3738.85C827.402 3717.81 810.351 3700.76 789.318 3700.76C768.284 3700.76 751.233 3717.81 751.233 3738.85C751.233 3759.88 768.284 3776.93 789.318 3776.93Z" stroke="#5B0B0B"/>
<path d="M789.318 3760.82C801.452 3760.82 811.289 3750.98 811.289 3738.85C811.289 3726.71 801.452 3716.87 789.318 3716.87C777.183 3716.87 767.346 3726.71 767.346 3738.85C767.346 3750.98 777.183 3760.82 789.318 3760.82Z" stroke="#5B0B0B"/>
<path d="M752.256 3732.4H669.782" stroke="#5B0B0B"/>
<path d="M907.754 3734.6C908.967 3734.6 909.952 3733.61 909.952 3732.4C909.952 3731.19 908.967 3730.2 907.754 3730.2V3734.6ZM907.754 3730.2H826.38V3734.6H907.754V3730.2Z" fill="#5B0B0B"/>
<path d="M752.256 3742.07H669.782" stroke="#5B0B0B"/>
<path d="M907.754 3744.26C908.967 3744.26 909.952 3743.28 909.952 3742.07C909.952 3740.85 908.967 3739.87 907.754 3739.87V3744.26ZM907.754 3739.87H826.38V3744.26H907.754V3739.87Z" fill="#5B0B0B"/>
</g>
<g opacity="0.5">
<path d="M129.644 4056.31C195.173 4056.31 248.295 4003.19 248.295 3937.66C248.295 3872.12 195.173 3819 129.644 3819C64.1143 3819 10.9922 3872.12 10.9922 3937.66C10.9922 4003.19 64.1143 4056.31 129.644 4056.31Z" stroke="#5B0B0B"/>
<path d="M129.644 3975.74C150.677 3975.74 167.729 3958.69 167.729 3937.66C167.729 3916.62 150.677 3899.57 129.644 3899.57C108.61 3899.57 91.5588 3916.62 91.5588 3937.66C91.5588 3958.69 108.61 3975.74 129.644 3975.74Z" stroke="#5B0B0B"/>
</g>
<g opacity="0.5">
<path d="M688.148 3401.01C753.678 3401.01 806.8 3347.89 806.8 3282.36C806.8 3216.83 753.678 3163.7 688.148 3163.7C622.619 3163.7 569.497 3216.83 569.497 3282.36C569.497 3347.89 622.619 3401.01 688.148 3401.01Z" stroke="#5B0B0B"/>
<path d="M688.148 3320.44C709.182 3320.44 726.233 3303.39 726.233 3282.36C726.233 3261.32 709.182 3244.27 688.148 3244.27C667.115 3244.27 650.063 3261.32 650.063 3282.36C650.063 3303.39 667.115 3320.44 688.148 3320.44Z" stroke="#5B0B0B"/>
<path d="M688.148 3304.33C700.283 3304.33 710.12 3294.49 710.12 3282.36C710.12 3270.22 700.283 3260.39 688.148 3260.39C676.014 3260.39 666.177 3270.22 666.177 3282.36C666.177 3294.49 676.014 3304.33 688.148 3304.33Z" stroke="#5B0B0B"/>
<path d="M651.087 3275.91H568.613" stroke="#5B0B0B"/>
<path d="M806.585 3278.11C807.798 3278.11 808.783 3277.13 808.783 3275.91C808.783 3274.7 807.798 3273.71 806.585 3273.71V3278.11ZM806.585 3273.71H725.21V3278.11H806.585V3273.71Z" fill="#5B0B0B"/>
<path d="M651.087 3285.58H568.613" stroke="#5B0B0B"/>
<path d="M806.585 3287.78C807.798 3287.78 808.783 3286.8 808.783 3285.58C808.783 3284.37 807.798 3283.38 806.585 3283.38V3287.78ZM806.585 3283.38H725.21V3287.78H806.585V3283.38Z" fill="#5B0B0B"/>
</g>
</g>
<g opacity="0.5">
<path d="M1176.04 3399.66C1241.57 3399.66 1294.69 3346.53 1294.69 3281C1294.69 3215.47 1241.57 3162.34 1176.04 3162.34C1110.51 3162.34 1057.39 3215.47 1057.39 3281C1057.39 3346.53 1110.51 3399.66 1176.04 3399.66Z" stroke="#5B0B0B"/>
<path d="M1176.04 3319.09C1197.08 3319.09 1214.13 3302.03 1214.13 3281C1214.13 3259.97 1197.08 3242.91 1176.04 3242.91C1155.01 3242.91 1137.96 3259.97 1137.96 3281C1137.96 3302.03 1155.01 3319.09 1176.04 3319.09Z" stroke="#5B0B0B"/>
<path d="M1176.04 3302.97C1188.18 3302.97 1198.01 3293.13 1198.01 3281C1198.01 3268.86 1188.18 3259.03 1176.04 3259.03C1163.91 3259.03 1154.07 3268.86 1154.07 3281C1154.07 3293.13 1163.91 3302.97 1176.04 3302.97Z" stroke="#5B0B0B"/>
<path d="M1139.83 3274.4H1059.25" stroke="#5B0B0B"/>
<path d="M1291.77 3276.6C1292.98 3276.6 1293.96 3275.61 1293.96 3274.4C1293.96 3273.19 1292.98 3272.2 1291.77 3272.2V3276.6ZM1291.77 3272.2H1212.26V3276.6H1291.77V3272.2Z" fill="#5B0B0B"/>
<path d="M1139.83 3284.3H1059.25" stroke="#5B0B0B"/>
<path d="M1291.77 3286.5C1292.98 3286.5 1293.96 3285.51 1293.96 3284.3C1293.96 3283.08 1292.98 3282.1 1291.77 3282.1V3286.5ZM1291.77 3282.1H1212.26V3286.5H1291.77V3282.1Z" fill="#5B0B0B"/>
<g opacity="0.5">
<path d="M1176.04 3399.66C1241.57 3399.66 1294.69 3346.53 1294.69 3281C1294.69 3215.47 1241.57 3162.34 1176.04 3162.34C1110.51 3162.34 1057.39 3215.47 1057.39 3281C1057.39 3346.53 1110.51 3399.66 1176.04 3399.66Z" stroke="#5B0B0B"/>
<path d="M1176.04 3319.09C1197.08 3319.09 1214.13 3302.03 1214.13 3281C1214.13 3259.97 1197.08 3242.91 1176.04 3242.91C1155.01 3242.91 1137.96 3259.97 1137.96 3281C1137.96 3302.03 1155.01 3319.09 1176.04 3319.09Z" stroke="#5B0B0B"/>
<path d="M1176.04 3302.97C1188.18 3302.97 1198.01 3293.13 1198.01 3281C1198.01 3268.86 1188.18 3259.03 1176.04 3259.03C1163.91 3259.03 1154.07 3268.86 1154.07 3281C1154.07 3293.13 1163.91 3302.97 1176.04 3302.97Z" stroke="#5B0B0B"/>
<path d="M1138.99 3274.55H1056.51" stroke="#5B0B0B"/>
<path d="M1294.48 3276.75C1295.7 3276.75 1296.68 3275.77 1296.68 3274.55C1296.68 3273.34 1295.7 3272.36 1294.48 3272.36V3276.75ZM1294.48 3272.36H1213.1V3276.75H1294.48V3272.36Z" fill="#5B0B0B"/>
<path d="M1138.99 3284.22H1056.51" stroke="#5B0B0B"/>
<path d="M1294.48 3286.42C1295.7 3286.42 1296.68 3285.44 1296.68 3284.22C1296.68 3283 1295.7 3282.02 1294.48 3282.02V3286.42ZM1294.48 3282.02H1213.1V3286.42H1294.48V3282.02Z" fill="#5B0B0B"/>
</g>
<g opacity="0.5">
<path d="M1554.39 3646.44C1619.92 3646.44 1673.04 3593.32 1673.04 3527.79C1673.04 3462.25 1619.92 3409.13 1554.39 3409.13C1488.86 3409.13 1435.73 3462.25 1435.73 3527.79C1435.73 3593.32 1488.86 3646.44 1554.39 3646.44Z" stroke="#5B0B0B"/>
<path d="M1554.39 3565.87C1575.42 3565.87 1592.47 3548.82 1592.47 3527.79C1592.47 3506.75 1575.42 3489.7 1554.39 3489.7C1533.35 3489.7 1516.3 3506.75 1516.3 3527.79C1516.3 3548.82 1533.35 3565.87 1554.39 3565.87Z" stroke="#5B0B0B"/>
<path d="M1554.39 3549.76C1566.52 3549.76 1576.36 3539.92 1576.36 3527.79C1576.36 3515.65 1566.52 3505.81 1554.39 3505.81C1542.25 3505.81 1532.42 3515.65 1532.42 3527.79C1532.42 3539.92 1542.25 3549.76 1554.39 3549.76Z" stroke="#5B0B0B"/>
<path d="M1517.32 3521.34H1434.85" stroke="#5B0B0B"/>
<path d="M1672.82 3523.54C1674.04 3523.54 1675.02 3522.55 1675.02 3521.34C1675.02 3520.13 1674.04 3519.14 1672.82 3519.14V3523.54ZM1672.82 3519.14H1591.45V3523.54H1672.82V3519.14Z" fill="#5B0B0B"/>
<path d="M1517.32 3531.01H1434.85" stroke="#5B0B0B"/>
<path d="M1672.82 3533.2C1674.04 3533.2 1675.02 3532.22 1675.02 3531C1675.02 3529.79 1674.04 3528.81 1672.82 3528.81V3533.2ZM1672.82 3528.81H1591.45V3533.2H1672.82V3528.81Z" fill="#5B0B0B"/>
</g>
<g opacity="0.5">
<path d="M894.713 3845.25C960.242 3845.25 1013.36 3792.13 1013.36 3726.6C1013.36 3661.06 960.242 3607.94 894.713 3607.94C829.183 3607.94 776.061 3661.06 776.061 3726.6C776.061 3792.13 829.183 3845.25 894.713 3845.25Z" stroke="#5B0B0B"/>
<path d="M894.713 3764.68C915.746 3764.68 932.798 3747.63 932.798 3726.6C932.798 3705.56 915.746 3688.51 894.713 3688.51C873.679 3688.51 856.628 3705.56 856.628 3726.6C856.628 3747.63 873.679 3764.68 894.713 3764.68Z" stroke="#5B0B0B"/>
<path d="M894.713 3748.57C906.847 3748.57 916.684 3738.73 916.684 3726.6C916.684 3714.46 906.847 3704.62 894.713 3704.62C882.578 3704.62 872.741 3714.46 872.741 3726.6C872.741 3738.73 882.578 3748.57 894.713 3748.57Z" stroke="#5B0B0B"/>
<path d="M857.651 3720.15H775.177" stroke="#5B0B0B"/>
<path d="M1013.15 3722.35C1014.36 3722.35 1015.35 3721.36 1015.35 3720.15C1015.35 3718.94 1014.36 3717.95 1013.15 3717.95V3722.35ZM1013.15 3717.95H931.775V3722.35H1013.15V3717.95Z" fill="#5B0B0B"/>
<path d="M857.651 3729.82H775.177" stroke="#5B0B0B"/>
<path d="M1013.15 3732.02C1014.36 3732.02 1015.35 3731.03 1015.35 3729.82C1015.35 3728.61 1014.36 3727.62 1013.15 3727.62V3732.02ZM1013.15 3727.62H931.775V3732.02H1013.15V3727.62Z" fill="#5B0B0B"/>
</g>
<g opacity="0.5">
<path d="M1453.22 3189.95C1518.75 3189.95 1571.87 3136.83 1571.87 3071.3C1571.87 3005.77 1518.75 2952.64 1453.22 2952.64C1387.69 2952.64 1334.57 3005.77 1334.57 3071.3C1334.57 3136.83 1387.69 3189.95 1453.22 3189.95Z" stroke="#5B0B0B"/>
<path d="M1453.22 3109.38C1474.25 3109.38 1491.3 3092.33 1491.3 3071.3C1491.3 3050.26 1474.25 3033.21 1453.22 3033.21C1432.18 3033.21 1415.13 3050.26 1415.13 3071.3C1415.13 3092.33 1432.18 3109.38 1453.22 3109.38Z" stroke="#5B0B0B"/>
<path d="M1453.22 3093.27C1465.35 3093.27 1475.19 3083.43 1475.19 3071.3C1475.19 3059.16 1465.35 3049.33 1453.22 3049.33C1441.08 3049.33 1431.25 3059.16 1431.25 3071.3C1431.25 3083.43 1441.08 3093.27 1453.22 3093.27Z" stroke="#5B0B0B"/>
<path d="M1416.16 3064.85H1333.68" stroke="#5B0B0B"/>
<path d="M1571.65 3067.05C1572.87 3067.05 1573.85 3066.07 1573.85 3064.85C1573.85 3063.64 1572.87 3062.65 1571.65 3062.65V3067.05ZM1571.65 3062.65H1490.28V3067.05H1571.65V3062.65Z" fill="#5B0B0B"/>
<path d="M1416.16 3074.52H1333.68" stroke="#5B0B0B"/>
<path d="M1571.65 3076.72C1572.87 3076.72 1573.85 3075.74 1573.85 3074.52C1573.85 3073.31 1572.87 3072.32 1571.65 3072.32V3076.72ZM1571.65 3072.32H1490.28V3076.72H1571.65V3072.32Z" fill="#5B0B0B"/>
</g>
</g>
<g opacity="0.5">
<path d="M1271.07 1313.24C1352.62 1313.24 1418.73 1247.13 1418.73 1165.58C1418.73 1084.03 1352.62 1017.92 1271.07 1017.92C1189.53 1017.92 1123.42 1084.03 1123.42 1165.58C1123.42 1247.13 1189.53 1313.24 1271.07 1313.24Z" stroke="#5B0B0B"/>
<path d="M1271.07 1213.34C1297.45 1213.34 1318.83 1191.96 1318.83 1165.58C1318.83 1139.21 1297.45 1117.83 1271.07 1117.83C1244.7 1117.83 1223.32 1139.21 1223.32 1165.58C1223.32 1191.96 1244.7 1213.34 1271.07 1213.34Z" stroke="#5B0B0B"/>
<path d="M1271.07 1193.36C1286.41 1193.36 1298.85 1180.92 1298.85 1165.58C1298.85 1150.25 1286.41 1137.81 1271.07 1137.81C1255.74 1137.81 1243.3 1150.25 1243.3 1165.58C1243.3 1180.92 1255.74 1193.36 1271.07 1193.36Z" stroke="#5B0B0B"/>
<path d="M1225.12 1157.59H1122.85" stroke="#5B0B0B"/>
<path d="M1417.94 1159.79C1419.15 1159.79 1420.13 1158.81 1420.13 1157.59C1420.13 1156.38 1419.15 1155.4 1417.94 1155.4V1159.79ZM1417.94 1155.4H1317.03V1159.79H1417.94V1155.4Z" fill="#5B0B0B"/>
<path d="M1225.12 1169.58H1122.85" stroke="#5B0B0B"/>
<path d="M1417.94 1171.78C1419.15 1171.78 1420.13 1170.79 1420.13 1169.58C1420.13 1168.37 1419.15 1167.38 1417.94 1167.38V1171.78ZM1417.94 1167.38H1317.03V1171.78H1417.94V1167.38Z" fill="#5B0B0B"/>
</g>
<g opacity="0.5">
<path d="M468.275 1444.44C558.124 1444.44 630.962 1371.6 630.962 1281.75C630.962 1191.9 558.124 1119.06 468.275 1119.06C378.425 1119.06 305.588 1191.9 305.588 1281.75C305.588 1371.6 378.425 1444.44 468.275 1444.44Z" stroke="#5B0B0B"/>
<path d="M468.275 1334.52C497.415 1334.52 521.038 1310.89 521.038 1281.75C521.038 1252.61 497.415 1228.99 468.275 1228.99C439.134 1228.99 415.511 1252.61 415.511 1281.75C415.511 1310.89 439.134 1334.52 468.275 1334.52Z" stroke="#5B0B0B"/>
<path d="M468.275 1312.53C485.273 1312.53 499.053 1298.75 499.053 1281.75C499.053 1264.75 485.273 1250.97 468.275 1250.97C451.276 1250.97 437.496 1264.75 437.496 1281.75C437.496 1298.75 451.276 1312.53 468.275 1312.53Z" stroke="#5B0B0B"/>
<path d="M417.71 1272.96H305.185" stroke="#5B0B0B"/>
<path d="M629.867 1275.15C631.08 1275.15 632.065 1274.17 632.065 1272.96C632.065 1271.74 631.08 1270.76 629.867 1270.76V1275.15ZM629.867 1270.76H518.839V1275.15H629.867V1270.76Z" fill="#5B0B0B"/>
<path d="M417.71 1286.15H305.185" stroke="#5B0B0B"/>
<path d="M629.867 1288.35C631.08 1288.35 632.065 1287.36 632.065 1286.15C632.065 1284.93 631.08 1283.95 629.867 1283.95V1288.35ZM629.867 1283.95H518.839V1288.35H629.867V1283.95Z" fill="#5B0B0B"/>
</g>
<g opacity="0.5">
<path d="M1029.32 816.53C1079.34 816.53 1119.89 775.978 1119.89 725.954C1119.89 675.931 1079.34 635.378 1029.32 635.378C979.299 635.378 938.748 675.931 938.748 725.954C938.748 775.978 979.299 816.53 1029.32 816.53Z" stroke="#5B0B0B"/>
<path d="M1029.32 754.681C1045.19 754.681 1058.05 741.819 1058.05 725.954C1058.05 710.089 1045.19 697.228 1029.32 697.228C1013.46 697.228 1000.6 710.089 1000.6 725.954C1000.6 741.819 1013.46 754.681 1029.32 754.681Z" stroke="#5B0B0B"/>
<path d="M1029.32 742.311C1038.35 742.311 1045.68 734.988 1045.68 725.954C1045.68 716.921 1038.35 709.598 1029.32 709.598C1020.29 709.598 1012.96 716.921 1012.96 725.954C1012.96 734.988 1020.29 742.311 1029.32 742.311Z" stroke="#5B0B0B"/>
<path d="M1000.87 721.008H937.561" stroke="#5B0B0B"/>
<path d="M1120.24 723.206C1121.45 723.206 1122.44 722.221 1122.44 721.008C1122.44 719.794 1121.45 718.809 1120.24 718.809V723.206ZM1120.24 718.809H1057.77V723.206H1120.24V718.809Z" fill="#5B0B0B"/>
<path d="M1000.87 728.43H937.561" stroke="#5B0B0B"/>
<path d="M1120.24 730.629C1121.45 730.629 1122.44 729.644 1122.44 728.43C1122.44 727.216 1121.45 726.231 1120.24 726.231V730.629ZM1120.24 726.231H1057.77V730.629H1120.24V726.231Z" fill="#5B0B0B"/>
</g>
</g>
<defs>
<linearGradient id="paint0_linear_44_4465" x1="864" y1="0" x2="864" y2="4828" gradientUnits="userSpaceOnUse">
<stop stop-color="#BD4B4C"/>
<stop offset="1" stop-color="#910002"/>
</linearGradient>
</defs>
</svg>
