<svg width="1728" height="3250" viewBox="0 0 1728 3250" fill="none" xmlns="http://www.w3.org/2000/svg">
<g clip-path="url(#clip0_196_2464)">
<rect width="1728" height="3250" fill="#8A0002"/>
<circle cx="87.1658" cy="80.1658" r="124.5" transform="rotate(-37.2591 87.1658 80.1658)" stroke="black" stroke-opacity="0.35"/>
<circle cx="87.1659" cy="80.1658" r="49.5" transform="rotate(-37.2591 87.1659 80.1658)" stroke="black" stroke-opacity="0.35"/>
<circle cx="87.166" cy="80.1658" r="24.5" transform="rotate(-37.2591 87.166 80.1658)" stroke="black" stroke-opacity="0.35"/>
<line x1="46.6533" y1="107.842" x2="-13.8356" y2="153.854" stroke="black" stroke-opacity="0.35"/>
<line x1="50.8906" y1="113.413" x2="-9.59825" y2="159.425" stroke="black" stroke-opacity="0.35"/>
<line x1="185.141" y1="2.49847" x2="124.652" y2="48.5104" stroke="black" stroke-opacity="0.35"/>
<line x1="189.379" y1="8.06981" x2="128.89" y2="54.0818" stroke="black" stroke-opacity="0.35"/>
<circle cx="195.166" cy="384.166" r="124.5" transform="rotate(-37.2591 195.166 384.166)" stroke="black" stroke-opacity="0.35"/>
<circle cx="195.166" cy="384.166" r="49.5" transform="rotate(-37.2591 195.166 384.166)" stroke="black" stroke-opacity="0.35"/>
<circle cx="195.166" cy="384.166" r="24.5" transform="rotate(-37.2591 195.166 384.166)" stroke="black" stroke-opacity="0.35"/>
<line x1="154.653" y1="411.842" x2="94.1645" y2="457.854" stroke="black" stroke-opacity="0.35"/>
<line x1="158.891" y1="417.413" x2="98.4018" y2="463.425" stroke="black" stroke-opacity="0.35"/>
<line x1="293.141" y1="306.498" x2="232.652" y2="352.51" stroke="black" stroke-opacity="0.35"/>
<line x1="297.379" y1="312.07" x2="236.89" y2="358.082" stroke="black" stroke-opacity="0.35"/>
<circle cx="371.166" cy="629.166" r="124.5" transform="rotate(-37.2591 371.166 629.166)" stroke="black" stroke-opacity="0.35"/>
<circle cx="371.166" cy="629.166" r="49.5" transform="rotate(-37.2591 371.166 629.166)" stroke="black" stroke-opacity="0.35"/>
<circle cx="371.166" cy="629.166" r="24.5" transform="rotate(-37.2591 371.166 629.166)" stroke="black" stroke-opacity="0.35"/>
<line x1="330.653" y1="656.842" x2="270.164" y2="702.854" stroke="black" stroke-opacity="0.35"/>
<line x1="334.891" y1="662.413" x2="274.402" y2="708.425" stroke="black" stroke-opacity="0.35"/>
<line x1="469.141" y1="551.498" x2="408.652" y2="597.51" stroke="black" stroke-opacity="0.35"/>
<line x1="473.379" y1="557.07" x2="412.89" y2="603.082" stroke="black" stroke-opacity="0.35"/>
<circle cx="865.166" cy="153.166" r="124.5" transform="rotate(-37.2591 865.166 153.166)" stroke="black" stroke-opacity="0.35"/>
<circle cx="865.166" cy="153.166" r="49.5" transform="rotate(-37.2591 865.166 153.166)" stroke="black" stroke-opacity="0.35"/>
<circle cx="865.166" cy="153.166" r="24.5" transform="rotate(-37.2591 865.166 153.166)" stroke="black" stroke-opacity="0.35"/>
<line x1="824.653" y1="180.842" x2="764.164" y2="226.854" stroke="black" stroke-opacity="0.35"/>
<line x1="828.891" y1="186.413" x2="768.402" y2="232.425" stroke="black" stroke-opacity="0.35"/>
<line x1="963.141" y1="75.4985" x2="902.652" y2="121.51" stroke="black" stroke-opacity="0.35"/>
<line x1="967.379" y1="81.0698" x2="906.89" y2="127.082" stroke="black" stroke-opacity="0.35"/>
<circle cx="1258.17" cy="67.1658" r="124.5" transform="rotate(-37.2591 1258.17 67.1658)" stroke="black" stroke-opacity="0.35"/>
<circle cx="1258.17" cy="67.1658" r="49.5" transform="rotate(-37.2591 1258.17 67.1658)" stroke="black" stroke-opacity="0.35"/>
<circle cx="1258.17" cy="67.1658" r="24.5" transform="rotate(-37.2591 1258.17 67.1658)" stroke="black" stroke-opacity="0.35"/>
<line x1="1217.65" y1="94.8416" x2="1157.16" y2="140.854" stroke="black" stroke-opacity="0.35"/>
<line x1="1221.89" y1="100.413" x2="1161.4" y2="146.425" stroke="black" stroke-opacity="0.35"/>
<line x1="1356.14" y1="-10.5015" x2="1295.65" y2="35.5104" stroke="black" stroke-opacity="0.35"/>
<line x1="1360.38" y1="-4.93019" x2="1299.89" y2="41.0818" stroke="black" stroke-opacity="0.35"/>
<circle cx="1107.17" cy="390.166" r="124.5" transform="rotate(-37.2591 1107.17 390.166)" stroke="black" stroke-opacity="0.35"/>
<circle cx="1107.17" cy="390.166" r="49.5" transform="rotate(-37.2591 1107.17 390.166)" stroke="black" stroke-opacity="0.35"/>
<circle cx="1107.17" cy="390.166" r="24.5" transform="rotate(-37.2591 1107.17 390.166)" stroke="black" stroke-opacity="0.35"/>
<line x1="1066.65" y1="417.842" x2="1006.16" y2="463.854" stroke="black" stroke-opacity="0.35"/>
<line x1="1070.89" y1="423.413" x2="1010.4" y2="469.425" stroke="black" stroke-opacity="0.35"/>
<line x1="1205.14" y1="312.498" x2="1144.65" y2="358.51" stroke="black" stroke-opacity="0.35"/>
<line x1="1209.38" y1="318.07" x2="1148.89" y2="364.082" stroke="black" stroke-opacity="0.35"/>
<circle cx="1433.17" cy="1106.17" r="124.5" transform="rotate(-37.2591 1433.17 1106.17)" stroke="black" stroke-opacity="0.35"/>
<circle cx="1433.17" cy="1106.17" r="49.5" transform="rotate(-37.2591 1433.17 1106.17)" stroke="black" stroke-opacity="0.35"/>
<circle cx="1433.17" cy="1106.17" r="24.5" transform="rotate(-37.2591 1433.17 1106.17)" stroke="black" stroke-opacity="0.35"/>
<line x1="1392.65" y1="1133.84" x2="1332.16" y2="1179.85" stroke="black" stroke-opacity="0.35"/>
<line x1="1396.89" y1="1139.41" x2="1336.4" y2="1185.42" stroke="black" stroke-opacity="0.35"/>
<line x1="1531.14" y1="1028.5" x2="1470.65" y2="1074.51" stroke="black" stroke-opacity="0.35"/>
<line x1="1535.38" y1="1034.07" x2="1474.89" y2="1080.08" stroke="black" stroke-opacity="0.35"/>
<circle cx="1617.17" cy="847.166" r="124.5" transform="rotate(-37.2591 1617.17 847.166)" stroke="black" stroke-opacity="0.35"/>
<circle cx="1617.17" cy="847.166" r="49.5" transform="rotate(-37.2591 1617.17 847.166)" stroke="black" stroke-opacity="0.35"/>
<circle cx="1617.17" cy="847.166" r="24.5" transform="rotate(-37.2591 1617.17 847.166)" stroke="black" stroke-opacity="0.35"/>
<line x1="1576.65" y1="874.842" x2="1516.16" y2="920.854" stroke="black" stroke-opacity="0.35"/>
<line x1="1580.89" y1="880.413" x2="1520.4" y2="926.425" stroke="black" stroke-opacity="0.35"/>
<line x1="1715.14" y1="769.498" x2="1654.65" y2="815.51" stroke="black" stroke-opacity="0.35"/>
<line x1="1719.38" y1="775.07" x2="1658.89" y2="821.082" stroke="black" stroke-opacity="0.35"/>
<circle cx="839.166" cy="700.974" r="124.5" transform="rotate(-37.2591 839.166 700.974)" stroke="black" stroke-opacity="0.35"/>
<circle cx="839.166" cy="700.974" r="49.5" transform="rotate(-37.2591 839.166 700.974)" stroke="black" stroke-opacity="0.35"/>
<circle cx="839.166" cy="700.974" r="24.5" transform="rotate(-37.2591 839.166 700.974)" stroke="black" stroke-opacity="0.35"/>
<line x1="798.652" y1="728.65" x2="738.163" y2="774.662" stroke="black" stroke-opacity="0.35"/>
<line x1="802.891" y1="734.221" x2="742.402" y2="780.233" stroke="black" stroke-opacity="0.35"/>
<line x1="937.14" y1="623.307" x2="876.651" y2="669.319" stroke="black" stroke-opacity="0.35"/>
<line x1="941.378" y1="628.878" x2="880.889" y2="674.89" stroke="black" stroke-opacity="0.35"/>
<circle cx="543.166" cy="908.974" r="124.5" transform="rotate(-37.2591 543.166 908.974)" stroke="black" stroke-opacity="0.35"/>
<circle cx="543.165" cy="908.974" r="49.5" transform="rotate(-37.2591 543.165 908.974)" stroke="black" stroke-opacity="0.35"/>
<circle cx="543.165" cy="908.974" r="24.5" transform="rotate(-37.2591 543.165 908.974)" stroke="black" stroke-opacity="0.35"/>
<line x1="502.652" y1="936.649" x2="442.163" y2="982.661" stroke="black" stroke-opacity="0.35"/>
<line x1="506.891" y1="942.221" x2="446.402" y2="988.233" stroke="black" stroke-opacity="0.35"/>
<line x1="641.14" y1="831.306" x2="580.651" y2="877.318" stroke="black" stroke-opacity="0.35"/>
<line x1="645.378" y1="836.878" x2="584.889" y2="882.89" stroke="black" stroke-opacity="0.35"/>
<circle cx="183.166" cy="1133.97" r="124.5" transform="rotate(-37.2591 183.166 1133.97)" stroke="black" stroke-opacity="0.35"/>
<circle cx="183.166" cy="1133.97" r="49.5" transform="rotate(-37.2591 183.166 1133.97)" stroke="black" stroke-opacity="0.35"/>
<circle cx="183.166" cy="1133.97" r="24.5" transform="rotate(-37.2591 183.166 1133.97)" stroke="black" stroke-opacity="0.35"/>
<line x1="142.653" y1="1161.65" x2="82.1645" y2="1207.66" stroke="black" stroke-opacity="0.35"/>
<line x1="146.891" y1="1167.22" x2="86.4018" y2="1213.23" stroke="black" stroke-opacity="0.35"/>
<line x1="281.141" y1="1056.31" x2="220.652" y2="1102.32" stroke="black" stroke-opacity="0.35"/>
<line x1="285.379" y1="1061.88" x2="224.89" y2="1107.89" stroke="black" stroke-opacity="0.35"/>
<circle cx="872.166" cy="1106.17" r="124.5" transform="rotate(-37.2591 872.166 1106.17)" stroke="black" stroke-opacity="0.35"/>
<circle cx="872.166" cy="1106.17" r="49.5" transform="rotate(-37.2591 872.166 1106.17)" stroke="black" stroke-opacity="0.35"/>
<circle cx="872.166" cy="1106.17" r="24.5" transform="rotate(-37.2591 872.166 1106.17)" stroke="black" stroke-opacity="0.35"/>
<line x1="831.653" y1="1133.84" x2="771.164" y2="1179.85" stroke="black" stroke-opacity="0.35"/>
<line x1="835.891" y1="1139.41" x2="775.402" y2="1185.43" stroke="black" stroke-opacity="0.35"/>
<line x1="970.141" y1="1028.5" x2="909.652" y2="1074.51" stroke="black" stroke-opacity="0.35"/>
<line x1="974.379" y1="1034.07" x2="913.89" y2="1080.08" stroke="black" stroke-opacity="0.35"/>
<circle cx="1713.17" cy="3224.17" r="124.5" transform="rotate(-37.2591 1713.17 3224.17)" stroke="black" stroke-opacity="0.35"/>
<circle cx="1713.17" cy="3224.17" r="49.5" transform="rotate(-37.2591 1713.17 3224.17)" stroke="black" stroke-opacity="0.35"/>
<circle cx="1713.17" cy="3224.17" r="24.5" transform="rotate(-37.2591 1713.17 3224.17)" stroke="black" stroke-opacity="0.35"/>
<circle cx="1557.17" cy="1852.17" r="124.5" transform="rotate(-37.2591 1557.17 1852.17)" stroke="black" stroke-opacity="0.35"/>
<circle cx="1557.17" cy="1852.17" r="49.5" transform="rotate(-37.2591 1557.17 1852.17)" stroke="black" stroke-opacity="0.35"/>
<circle cx="1557.17" cy="1852.17" r="24.5" transform="rotate(-37.2591 1557.17 1852.17)" stroke="black" stroke-opacity="0.35"/>
<line x1="1516.65" y1="1879.84" x2="1456.16" y2="1925.85" stroke="black" stroke-opacity="0.35"/>
<line x1="1520.89" y1="1885.41" x2="1460.4" y2="1931.42" stroke="black" stroke-opacity="0.35"/>
<line x1="1655.14" y1="1774.5" x2="1594.65" y2="1820.51" stroke="black" stroke-opacity="0.35"/>
<line x1="1659.38" y1="1780.07" x2="1598.89" y2="1826.08" stroke="black" stroke-opacity="0.35"/>
<circle cx="1676.17" cy="1372.17" r="124.5" transform="rotate(-37.2591 1676.17 1372.17)" stroke="black" stroke-opacity="0.35"/>
<circle cx="1676.17" cy="1372.17" r="49.5" transform="rotate(-37.2591 1676.17 1372.17)" stroke="black" stroke-opacity="0.35"/>
<circle cx="1676.17" cy="1372.17" r="24.5" transform="rotate(-37.2591 1676.17 1372.17)" stroke="black" stroke-opacity="0.35"/>
<line x1="1635.65" y1="1399.84" x2="1575.16" y2="1445.85" stroke="black" stroke-opacity="0.35"/>
<line x1="1639.89" y1="1405.41" x2="1579.4" y2="1451.43" stroke="black" stroke-opacity="0.35"/>
<line x1="1774.14" y1="1294.5" x2="1713.65" y2="1340.51" stroke="black" stroke-opacity="0.35"/>
<line x1="1778.38" y1="1300.07" x2="1717.89" y2="1346.08" stroke="black" stroke-opacity="0.35"/>
<circle cx="1411.17" cy="1571.17" r="124.5" transform="rotate(-37.2591 1411.17 1571.17)" stroke="black" stroke-opacity="0.35"/>
<circle cx="1411.16" cy="1571.17" r="49.5" transform="rotate(-37.2591 1411.16 1571.17)" stroke="black" stroke-opacity="0.35"/>
<circle cx="1411.17" cy="1571.17" r="24.5" transform="rotate(-37.2591 1411.17 1571.17)" stroke="black" stroke-opacity="0.35"/>
<line x1="1370.65" y1="1598.84" x2="1310.16" y2="1644.85" stroke="black" stroke-opacity="0.35"/>
<line x1="1374.89" y1="1604.41" x2="1314.4" y2="1650.43" stroke="black" stroke-opacity="0.35"/>
<line x1="1509.14" y1="1493.5" x2="1448.65" y2="1539.51" stroke="black" stroke-opacity="0.35"/>
<line x1="1513.38" y1="1499.07" x2="1452.89" y2="1545.08" stroke="black" stroke-opacity="0.35"/>
<circle cx="1162.17" cy="1773.17" r="124.5" transform="rotate(-37.2591 1162.17 1773.17)" stroke="black" stroke-opacity="0.35"/>
<circle cx="1162.17" cy="1773.17" r="49.5" transform="rotate(-37.2591 1162.17 1773.17)" stroke="black" stroke-opacity="0.35"/>
<circle cx="1162.17" cy="1773.17" r="24.5" transform="rotate(-37.2591 1162.17 1773.17)" stroke="black" stroke-opacity="0.35"/>
<line x1="1121.65" y1="1800.84" x2="1061.16" y2="1846.85" stroke="black" stroke-opacity="0.35"/>
<line x1="1125.89" y1="1806.41" x2="1065.4" y2="1852.43" stroke="black" stroke-opacity="0.35"/>
<line x1="1260.14" y1="1695.5" x2="1199.65" y2="1741.51" stroke="black" stroke-opacity="0.35"/>
<line x1="1264.38" y1="1701.07" x2="1203.89" y2="1747.08" stroke="black" stroke-opacity="0.35"/>
<circle cx="1172.17" cy="1302.17" r="124.5" transform="rotate(-37.2591 1172.17 1302.17)" stroke="black" stroke-opacity="0.35"/>
<circle cx="1172.17" cy="1302.17" r="49.5" transform="rotate(-37.2591 1172.17 1302.17)" stroke="black" stroke-opacity="0.35"/>
<circle cx="1172.17" cy="1302.17" r="24.5" transform="rotate(-37.2591 1172.17 1302.17)" stroke="black" stroke-opacity="0.35"/>
<line x1="1131.65" y1="1329.84" x2="1071.16" y2="1375.85" stroke="black" stroke-opacity="0.35"/>
<line x1="1135.89" y1="1335.41" x2="1075.4" y2="1381.43" stroke="black" stroke-opacity="0.35"/>
<line x1="1270.14" y1="1224.5" x2="1209.65" y2="1270.51" stroke="black" stroke-opacity="0.35"/>
<line x1="1274.38" y1="1230.07" x2="1213.89" y2="1276.08" stroke="black" stroke-opacity="0.35"/>
<circle cx="877.166" cy="1542.17" r="124.5" transform="rotate(-37.2591 877.166 1542.17)" stroke="black" stroke-opacity="0.35"/>
<circle cx="877.166" cy="1542.17" r="49.5" transform="rotate(-37.2591 877.166 1542.17)" stroke="black" stroke-opacity="0.35"/>
<circle cx="877.166" cy="1542.17" r="24.5" transform="rotate(-37.2591 877.166 1542.17)" stroke="black" stroke-opacity="0.35"/>
<line x1="836.652" y1="1569.84" x2="776.163" y2="1615.85" stroke="black" stroke-opacity="0.35"/>
<line x1="840.891" y1="1575.41" x2="780.402" y2="1621.43" stroke="black" stroke-opacity="0.35"/>
<line x1="975.14" y1="1464.5" x2="914.651" y2="1510.51" stroke="black" stroke-opacity="0.35"/>
<line x1="979.378" y1="1470.07" x2="918.889" y2="1516.08" stroke="black" stroke-opacity="0.35"/>
<circle cx="582.166" cy="1744.17" r="124.5" transform="rotate(-37.2591 582.166 1744.17)" stroke="black" stroke-opacity="0.35"/>
<circle cx="582.166" cy="1744.17" r="49.5" transform="rotate(-37.2591 582.166 1744.17)" stroke="black" stroke-opacity="0.35"/>
<circle cx="582.166" cy="1744.17" r="24.5" transform="rotate(-37.2591 582.166 1744.17)" stroke="black" stroke-opacity="0.35"/>
<line x1="541.653" y1="1771.84" x2="481.164" y2="1817.85" stroke="black" stroke-opacity="0.35"/>
<line x1="545.891" y1="1777.41" x2="485.402" y2="1823.43" stroke="black" stroke-opacity="0.35"/>
<line x1="680.141" y1="1666.5" x2="619.652" y2="1712.51" stroke="black" stroke-opacity="0.35"/>
<line x1="684.379" y1="1672.07" x2="623.89" y2="1718.08" stroke="black" stroke-opacity="0.35"/>
<circle cx="597.166" cy="2239.47" r="124.5" transform="rotate(-37.2591 597.166 2239.47)" stroke="black" stroke-opacity="0.35"/>
<circle cx="597.166" cy="2239.47" r="49.5" transform="rotate(-37.2591 597.166 2239.47)" stroke="black" stroke-opacity="0.35"/>
<circle cx="597.166" cy="2239.47" r="24.5" transform="rotate(-37.2591 597.166 2239.47)" stroke="black" stroke-opacity="0.35"/>
<line x1="556.652" y1="2267.15" x2="496.163" y2="2313.16" stroke="black" stroke-opacity="0.35"/>
<line x1="560.891" y1="2272.72" x2="500.402" y2="2318.73" stroke="black" stroke-opacity="0.35"/>
<line x1="695.141" y1="2161.8" x2="634.652" y2="2207.81" stroke="black" stroke-opacity="0.35"/>
<line x1="699.378" y1="2167.37" x2="638.889" y2="2213.39" stroke="black" stroke-opacity="0.35"/>
<circle cx="302.166" cy="2479.47" r="124.5" transform="rotate(-37.2591 302.166 2479.47)" stroke="black" stroke-opacity="0.35"/>
<circle cx="302.166" cy="2479.47" r="49.5" transform="rotate(-37.2591 302.166 2479.47)" stroke="black" stroke-opacity="0.35"/>
<circle cx="302.166" cy="2479.47" r="24.5" transform="rotate(-37.2591 302.166 2479.47)" stroke="black" stroke-opacity="0.35"/>
<line x1="261.652" y1="2507.15" x2="201.163" y2="2553.16" stroke="black" stroke-opacity="0.35"/>
<line x1="265.891" y1="2512.72" x2="205.402" y2="2558.73" stroke="black" stroke-opacity="0.35"/>
<line x1="400.14" y1="2401.8" x2="339.651" y2="2447.81" stroke="black" stroke-opacity="0.35"/>
<line x1="404.378" y1="2407.37" x2="343.889" y2="2453.39" stroke="black" stroke-opacity="0.35"/>
<circle cx="7.16578" cy="2681.47" r="124.5" transform="rotate(-37.2591 7.16578 2681.47)" stroke="black" stroke-opacity="0.35"/>
<circle cx="7.16592" cy="2681.47" r="49.5" transform="rotate(-37.2591 7.16592 2681.47)" stroke="black" stroke-opacity="0.35"/>
<circle cx="7.16597" cy="2681.47" r="24.5" transform="rotate(-37.2591 7.16597 2681.47)" stroke="black" stroke-opacity="0.35"/>
<line x1="105.141" y1="2603.8" x2="44.6518" y2="2649.81" stroke="black" stroke-opacity="0.35"/>
<line x1="109.379" y1="2609.37" x2="48.89" y2="2655.39" stroke="black" stroke-opacity="0.35"/>
<circle cx="1745.17" cy="2754.47" r="124.5" transform="rotate(-37.2591 1745.17 2754.47)" stroke="black" stroke-opacity="0.35"/>
<circle cx="1745.17" cy="2754.47" r="49.5" transform="rotate(-37.2591 1745.17 2754.47)" stroke="black" stroke-opacity="0.35"/>
<circle cx="1745.17" cy="2754.47" r="24.5" transform="rotate(-37.2591 1745.17 2754.47)" stroke="black" stroke-opacity="0.35"/>
<line x1="1704.65" y1="2782.15" x2="1644.16" y2="2828.16" stroke="black" stroke-opacity="0.35"/>
<line x1="1708.89" y1="2787.72" x2="1648.4" y2="2833.73" stroke="black" stroke-opacity="0.35"/>
<circle cx="1450.17" cy="2994.47" r="124.5" transform="rotate(-37.2591 1450.17 2994.47)" stroke="black" stroke-opacity="0.35"/>
<circle cx="1450.17" cy="2994.47" r="49.5" transform="rotate(-37.2591 1450.17 2994.47)" stroke="black" stroke-opacity="0.35"/>
<circle cx="1450.17" cy="2994.47" r="24.5" transform="rotate(-37.2591 1450.17 2994.47)" stroke="black" stroke-opacity="0.35"/>
<line x1="1409.65" y1="3022.15" x2="1349.16" y2="3068.16" stroke="black" stroke-opacity="0.35"/>
<line x1="1413.89" y1="3027.72" x2="1353.4" y2="3073.73" stroke="black" stroke-opacity="0.35"/>
<line x1="1548.14" y1="2916.8" x2="1487.65" y2="2962.81" stroke="black" stroke-opacity="0.35"/>
<line x1="1552.38" y1="2922.37" x2="1491.89" y2="2968.39" stroke="black" stroke-opacity="0.35"/>
<circle cx="1155.17" cy="3196.47" r="124.5" transform="rotate(-37.2591 1155.17 3196.47)" stroke="black" stroke-opacity="0.35"/>
<circle cx="1155.17" cy="3196.47" r="49.5" transform="rotate(-37.2591 1155.17 3196.47)" stroke="black" stroke-opacity="0.35"/>
<circle cx="1155.17" cy="3196.47" r="24.5" transform="rotate(-37.2591 1155.17 3196.47)" stroke="black" stroke-opacity="0.35"/>
<line x1="1114.65" y1="3224.15" x2="1054.16" y2="3270.16" stroke="black" stroke-opacity="0.35"/>
<line x1="1118.89" y1="3229.72" x2="1058.4" y2="3275.73" stroke="black" stroke-opacity="0.35"/>
<line x1="1253.14" y1="3118.8" x2="1192.65" y2="3164.81" stroke="black" stroke-opacity="0.35"/>
<line x1="1257.38" y1="3124.37" x2="1196.89" y2="3170.39" stroke="black" stroke-opacity="0.35"/>
<circle cx="1042.17" cy="2825.47" r="124.5" transform="rotate(-37.2591 1042.17 2825.47)" stroke="black" stroke-opacity="0.35"/>
<circle cx="1042.17" cy="2825.47" r="49.5" transform="rotate(-37.2591 1042.17 2825.47)" stroke="black" stroke-opacity="0.35"/>
<circle cx="1042.17" cy="2825.47" r="24.5" transform="rotate(-37.2591 1042.17 2825.47)" stroke="black" stroke-opacity="0.35"/>
<line x1="1001.65" y1="2853.15" x2="941.163" y2="2899.16" stroke="black" stroke-opacity="0.35"/>
<line x1="1005.89" y1="2858.72" x2="945.402" y2="2904.73" stroke="black" stroke-opacity="0.35"/>
<line x1="1140.14" y1="2747.8" x2="1079.65" y2="2793.81" stroke="black" stroke-opacity="0.35"/>
<line x1="1144.38" y1="2753.37" x2="1083.89" y2="2799.39" stroke="black" stroke-opacity="0.35"/>
<circle cx="747.166" cy="3065.47" r="124.5" transform="rotate(-37.2591 747.166 3065.47)" stroke="black" stroke-opacity="0.35"/>
<circle cx="747.166" cy="3065.47" r="49.5" transform="rotate(-37.2591 747.166 3065.47)" stroke="black" stroke-opacity="0.35"/>
<circle cx="747.166" cy="3065.47" r="24.5" transform="rotate(-37.2591 747.166 3065.47)" stroke="black" stroke-opacity="0.35"/>
<line x1="706.652" y1="3093.15" x2="646.163" y2="3139.16" stroke="black" stroke-opacity="0.35"/>
<line x1="710.891" y1="3098.72" x2="650.402" y2="3144.73" stroke="black" stroke-opacity="0.35"/>
<line x1="845.14" y1="2987.8" x2="784.651" y2="3033.81" stroke="black" stroke-opacity="0.35"/>
<line x1="849.378" y1="2993.37" x2="788.889" y2="3039.39" stroke="black" stroke-opacity="0.35"/>
<circle cx="452.166" cy="3267.47" r="124.5" transform="rotate(-37.2591 452.166 3267.47)" stroke="black" stroke-opacity="0.35"/>
<circle cx="452.166" cy="3267.47" r="49.5" transform="rotate(-37.2591 452.166 3267.47)" stroke="black" stroke-opacity="0.35"/>
<circle cx="452.166" cy="3267.47" r="24.5" transform="rotate(-37.2591 452.166 3267.47)" stroke="black" stroke-opacity="0.35"/>
<line x1="550.141" y1="3189.8" x2="489.652" y2="3235.81" stroke="black" stroke-opacity="0.35"/>
<line x1="554.379" y1="3195.37" x2="493.89" y2="3241.39" stroke="black" stroke-opacity="0.35"/>
<circle cx="1651.17" cy="2396.47" r="124.5" transform="rotate(-37.2591 1651.17 2396.47)" stroke="black" stroke-opacity="0.35"/>
<circle cx="1651.17" cy="2396.47" r="49.5" transform="rotate(-37.2591 1651.17 2396.47)" stroke="black" stroke-opacity="0.35"/>
<circle cx="1651.17" cy="2396.47" r="24.5" transform="rotate(-37.2591 1651.17 2396.47)" stroke="black" stroke-opacity="0.35"/>
<line x1="1610.65" y1="2424.15" x2="1550.16" y2="2470.16" stroke="black" stroke-opacity="0.35"/>
<line x1="1614.89" y1="2429.72" x2="1554.4" y2="2475.73" stroke="black" stroke-opacity="0.35"/>
<line x1="1749.14" y1="2318.8" x2="1688.65" y2="2364.81" stroke="black" stroke-opacity="0.35"/>
<line x1="1753.38" y1="2324.37" x2="1692.89" y2="2370.39" stroke="black" stroke-opacity="0.35"/>
<circle cx="1356.17" cy="2598.47" r="124.5" transform="rotate(-37.2591 1356.17 2598.47)" stroke="black" stroke-opacity="0.35"/>
<circle cx="1356.17" cy="2598.47" r="49.5" transform="rotate(-37.2591 1356.17 2598.47)" stroke="black" stroke-opacity="0.35"/>
<circle cx="1356.17" cy="2598.47" r="24.5" transform="rotate(-37.2591 1356.17 2598.47)" stroke="black" stroke-opacity="0.35"/>
<line x1="1315.65" y1="2626.15" x2="1255.16" y2="2672.16" stroke="black" stroke-opacity="0.35"/>
<line x1="1319.89" y1="2631.72" x2="1259.4" y2="2677.73" stroke="black" stroke-opacity="0.35"/>
<line x1="1454.14" y1="2520.8" x2="1393.65" y2="2566.81" stroke="black" stroke-opacity="0.35"/>
<line x1="1458.38" y1="2526.37" x2="1397.89" y2="2572.39" stroke="black" stroke-opacity="0.35"/>
<circle cx="475.166" cy="2760.47" r="124.5" transform="rotate(-37.2591 475.166 2760.47)" stroke="black" stroke-opacity="0.35"/>
<circle cx="475.166" cy="2760.47" r="49.5" transform="rotate(-37.2591 475.166 2760.47)" stroke="black" stroke-opacity="0.35"/>
<circle cx="475.166" cy="2760.47" r="24.5" transform="rotate(-37.2591 475.166 2760.47)" stroke="black" stroke-opacity="0.35"/>
<line x1="434.652" y1="2788.15" x2="374.163" y2="2834.16" stroke="black" stroke-opacity="0.35"/>
<line x1="438.891" y1="2793.72" x2="378.402" y2="2839.73" stroke="black" stroke-opacity="0.35"/>
<line x1="573.141" y1="2682.8" x2="512.652" y2="2728.81" stroke="black" stroke-opacity="0.35"/>
<line x1="577.378" y1="2688.37" x2="516.889" y2="2734.39" stroke="black" stroke-opacity="0.35"/>
<circle cx="180.166" cy="3000.47" r="124.5" transform="rotate(-37.2591 180.166 3000.47)" stroke="black" stroke-opacity="0.35"/>
<circle cx="180.166" cy="3000.47" r="49.5" transform="rotate(-37.2591 180.166 3000.47)" stroke="black" stroke-opacity="0.35"/>
<circle cx="180.166" cy="3000.47" r="24.5" transform="rotate(-37.2591 180.166 3000.47)" stroke="black" stroke-opacity="0.35"/>
<line x1="139.652" y1="3028.15" x2="79.1635" y2="3074.16" stroke="black" stroke-opacity="0.35"/>
<line x1="143.891" y1="3033.72" x2="83.4018" y2="3079.73" stroke="black" stroke-opacity="0.35"/>
<line x1="278.14" y1="2922.8" x2="217.651" y2="2968.81" stroke="black" stroke-opacity="0.35"/>
<line x1="282.378" y1="2928.37" x2="221.889" y2="2974.39" stroke="black" stroke-opacity="0.35"/>
<circle cx="-114.834" cy="3202.47" r="124.5" transform="rotate(-37.2591 -114.834 3202.47)" stroke="black" stroke-opacity="0.35"/>
<circle cx="1303.11" cy="2102.41" r="124.5" transform="rotate(-40.8944 1303.11 2102.41)" stroke="black" stroke-opacity="0.35"/>
<circle cx="1303.11" cy="2102.41" r="49.5" transform="rotate(-40.8944 1303.11 2102.41)" stroke="black" stroke-opacity="0.35"/>
<circle cx="1303.11" cy="2102.41" r="24.5" transform="rotate(-40.8944 1303.11 2102.41)" stroke="black" stroke-opacity="0.35"/>
<line x1="1264.43" y1="2132.6" x2="1206.98" y2="2182.35" stroke="black" stroke-opacity="0.35"/>
<line x1="1269.02" y1="2137.89" x2="1211.57" y2="2187.65" stroke="black" stroke-opacity="0.35"/>
<line x1="1395.96" y1="2018.69" x2="1338.51" y2="2068.44" stroke="black" stroke-opacity="0.35"/>
<line x1="1400.55" y1="2023.98" x2="1343.1" y2="2073.73" stroke="black" stroke-opacity="0.35"/>
<circle cx="1023.92" cy="2360.63" r="124.5" transform="rotate(-40.8944 1023.92 2360.63)" stroke="black" stroke-opacity="0.35"/>
<circle cx="1023.92" cy="2360.63" r="49.5" transform="rotate(-40.8944 1023.92 2360.63)" stroke="black" stroke-opacity="0.35"/>
<circle cx="1023.92" cy="2360.63" r="24.5" transform="rotate(-40.8944 1023.92 2360.63)" stroke="black" stroke-opacity="0.35"/>
<line x1="985.245" y1="2390.82" x2="927.796" y2="2440.58" stroke="black" stroke-opacity="0.35"/>
<line x1="989.827" y1="2396.11" x2="932.378" y2="2445.87" stroke="black" stroke-opacity="0.35"/>
<line x1="1116.77" y1="2276.91" x2="1059.32" y2="2326.66" stroke="black" stroke-opacity="0.35"/>
<line x1="1121.36" y1="2282.2" x2="1063.91" y2="2331.96" stroke="black" stroke-opacity="0.35"/>
<circle cx="742.323" cy="2580.93" r="124.5" transform="rotate(-40.8944 742.323 2580.93)" stroke="black" stroke-opacity="0.35"/>
<circle cx="742.323" cy="2580.93" r="49.5" transform="rotate(-40.8944 742.323 2580.93)" stroke="black" stroke-opacity="0.35"/>
<circle cx="742.323" cy="2580.93" r="24.5" transform="rotate(-40.8944 742.323 2580.93)" stroke="black" stroke-opacity="0.35"/>
<line x1="703.647" y1="2611.12" x2="646.197" y2="2660.87" stroke="black" stroke-opacity="0.35"/>
<line x1="708.229" y1="2616.41" x2="650.779" y2="2666.16" stroke="black" stroke-opacity="0.35"/>
<line x1="835.176" y1="2497.21" x2="777.726" y2="2546.96" stroke="black" stroke-opacity="0.35"/>
<line x1="839.759" y1="2502.5" x2="782.309" y2="2552.25" stroke="black" stroke-opacity="0.35"/>
<circle cx="374.102" cy="1482.17" r="124.5" transform="rotate(-37.2591 374.102 1482.17)" stroke="black" stroke-opacity="0.35"/>
<circle cx="374.102" cy="1482.17" r="49.5" transform="rotate(-37.2591 374.102 1482.17)" stroke="black" stroke-opacity="0.35"/>
<circle cx="374.102" cy="1482.17" r="24.5" transform="rotate(-37.2591 374.102 1482.17)" stroke="black" stroke-opacity="0.35"/>
<line x1="333.589" y1="1509.84" x2="273.1" y2="1555.85" stroke="black" stroke-opacity="0.35"/>
<line x1="337.827" y1="1515.41" x2="277.338" y2="1561.42" stroke="black" stroke-opacity="0.35"/>
<line x1="472.077" y1="1404.5" x2="411.588" y2="1450.51" stroke="black" stroke-opacity="0.35"/>
<line x1="476.314" y1="1410.07" x2="415.826" y2="1456.08" stroke="black" stroke-opacity="0.35"/>
<circle cx="111.102" cy="1684.16" r="124.5" transform="rotate(-37.2591 111.102 1684.16)" stroke="black" stroke-opacity="0.35"/>
<circle cx="111.102" cy="1684.16" r="49.5" transform="rotate(-37.2591 111.102 1684.16)" stroke="black" stroke-opacity="0.35"/>
<circle cx="111.102" cy="1684.16" r="24.5" transform="rotate(-37.2591 111.102 1684.16)" stroke="black" stroke-opacity="0.35"/>
<line x1="70.5898" y1="1711.84" x2="10.101" y2="1757.85" stroke="black" stroke-opacity="0.35"/>
<line x1="74.8271" y1="1717.41" x2="14.3383" y2="1763.42" stroke="black" stroke-opacity="0.35"/>
<line x1="209.077" y1="1606.5" x2="148.588" y2="1652.51" stroke="black" stroke-opacity="0.35"/>
<line x1="213.315" y1="1612.07" x2="152.827" y2="1658.08" stroke="black" stroke-opacity="0.35"/>
<circle cx="628.166" cy="1302.17" r="124.5" transform="rotate(-37.2591 628.166 1302.17)" stroke="black" stroke-opacity="0.35"/>
<circle cx="628.166" cy="1302.17" r="49.5" transform="rotate(-37.2591 628.166 1302.17)" stroke="black" stroke-opacity="0.35"/>
<circle cx="628.166" cy="1302.17" r="24.5" transform="rotate(-37.2591 628.166 1302.17)" stroke="black" stroke-opacity="0.35"/>
<line x1="587.653" y1="1329.84" x2="527.164" y2="1375.85" stroke="black" stroke-opacity="0.35"/>
<line x1="591.891" y1="1335.41" x2="531.402" y2="1381.42" stroke="black" stroke-opacity="0.35"/>
<line x1="726.141" y1="1224.5" x2="665.652" y2="1270.51" stroke="black" stroke-opacity="0.35"/>
<line x1="730.379" y1="1230.07" x2="669.89" y2="1276.08" stroke="black" stroke-opacity="0.35"/>
<circle cx="1138.16" cy="886.166" r="124.5" transform="rotate(-37.2591 1138.16 886.166)" stroke="black" stroke-opacity="0.35"/>
<circle cx="1138.16" cy="886.166" r="49.5" transform="rotate(-37.2591 1138.16 886.166)" stroke="black" stroke-opacity="0.35"/>
<circle cx="1138.17" cy="886.167" r="24.5" transform="rotate(-37.2591 1138.17 886.167)" stroke="black" stroke-opacity="0.35"/>
<line x1="1097.65" y1="913.842" x2="1037.16" y2="959.854" stroke="black" stroke-opacity="0.35"/>
<line x1="1101.89" y1="919.414" x2="1041.4" y2="965.426" stroke="black" stroke-opacity="0.35"/>
<line x1="1236.14" y1="808.499" x2="1175.65" y2="854.511" stroke="black" stroke-opacity="0.35"/>
<line x1="1240.38" y1="814.07" x2="1179.89" y2="860.082" stroke="black" stroke-opacity="0.35"/>
<circle cx="1383.41" cy="676.166" r="124.5" transform="rotate(-37.2591 1383.41 676.166)" stroke="black" stroke-opacity="0.35"/>
<circle cx="1383.41" cy="676.166" r="49.5" transform="rotate(-37.2591 1383.41 676.166)" stroke="black" stroke-opacity="0.35"/>
<circle cx="1383.42" cy="676.166" r="24.5" transform="rotate(-37.2591 1383.42 676.166)" stroke="black" stroke-opacity="0.35"/>
<line x1="1342.9" y1="703.842" x2="1282.41" y2="749.854" stroke="black" stroke-opacity="0.35"/>
<line x1="1347.14" y1="709.413" x2="1286.65" y2="755.425" stroke="black" stroke-opacity="0.35"/>
<line x1="1481.39" y1="598.499" x2="1420.9" y2="644.511" stroke="black" stroke-opacity="0.35"/>
<line x1="1485.63" y1="604.07" x2="1425.14" y2="650.082" stroke="black" stroke-opacity="0.35"/>
<circle cx="1558.41" cy="414.166" r="124.5" transform="rotate(-37.2591 1558.41 414.166)" stroke="black" stroke-opacity="0.35"/>
<circle cx="1558.41" cy="414.166" r="49.5" transform="rotate(-37.2591 1558.41 414.166)" stroke="black" stroke-opacity="0.35"/>
<circle cx="1558.42" cy="414.166" r="24.5" transform="rotate(-37.2591 1558.42 414.166)" stroke="black" stroke-opacity="0.35"/>
<line x1="1517.9" y1="441.842" x2="1457.41" y2="487.854" stroke="black" stroke-opacity="0.35"/>
<line x1="1522.14" y1="447.413" x2="1461.65" y2="493.425" stroke="black" stroke-opacity="0.35"/>
<line x1="1656.39" y1="336.499" x2="1595.9" y2="382.511" stroke="black" stroke-opacity="0.35"/>
<line x1="1660.63" y1="342.07" x2="1600.14" y2="388.082" stroke="black" stroke-opacity="0.35"/>
<circle cx="1768.41" cy="200.166" r="124.5" transform="rotate(-37.2591 1768.41 200.166)" stroke="black" stroke-opacity="0.35"/>
<circle cx="1768.41" cy="200.166" r="49.5" transform="rotate(-37.2591 1768.41 200.166)" stroke="black" stroke-opacity="0.35"/>
<line x1="1727.9" y1="227.842" x2="1667.41" y2="273.854" stroke="black" stroke-opacity="0.35"/>
<line x1="1732.14" y1="233.413" x2="1671.65" y2="279.425" stroke="black" stroke-opacity="0.35"/>
<circle cx="655.166" cy="416.166" r="124.5" transform="rotate(-37.2591 655.166 416.166)" stroke="black" stroke-opacity="0.35"/>
<circle cx="655.166" cy="416.166" r="49.5" transform="rotate(-37.2591 655.166 416.166)" stroke="black" stroke-opacity="0.35"/>
<circle cx="655.166" cy="416.166" r="24.5" transform="rotate(-37.2591 655.166 416.166)" stroke="black" stroke-opacity="0.35"/>
<line x1="614.653" y1="443.842" x2="554.164" y2="489.854" stroke="black" stroke-opacity="0.35"/>
<line x1="618.891" y1="449.413" x2="558.402" y2="495.425" stroke="black" stroke-opacity="0.35"/>
<line x1="753.141" y1="338.498" x2="692.652" y2="384.51" stroke="black" stroke-opacity="0.35"/>
<line x1="757.379" y1="344.07" x2="696.89" y2="390.082" stroke="black" stroke-opacity="0.35"/>
<circle cx="87.1658" cy="766.166" r="124.5" transform="rotate(-37.2591 87.1658 766.166)" stroke="black" stroke-opacity="0.35"/>
<circle cx="87.1659" cy="766.166" r="49.5" transform="rotate(-37.2591 87.1659 766.166)" stroke="black" stroke-opacity="0.35"/>
<circle cx="87.166" cy="766.166" r="24.5" transform="rotate(-37.2591 87.166 766.166)" stroke="black" stroke-opacity="0.35"/>
<line x1="46.6533" y1="793.842" x2="-13.8356" y2="839.854" stroke="black" stroke-opacity="0.35"/>
<line x1="50.8906" y1="799.413" x2="-9.59825" y2="845.425" stroke="black" stroke-opacity="0.35"/>
<line x1="185.141" y1="688.498" x2="124.652" y2="734.51" stroke="black" stroke-opacity="0.35"/>
<line x1="189.379" y1="694.07" x2="128.89" y2="740.082" stroke="black" stroke-opacity="0.35"/>
<circle cx="438.166" cy="139.166" r="124.5" transform="rotate(-37.2591 438.166 139.166)" stroke="black" stroke-opacity="0.35"/>
<circle cx="438.166" cy="139.166" r="49.5" transform="rotate(-37.2591 438.166 139.166)" stroke="black" stroke-opacity="0.35"/>
<circle cx="438.166" cy="139.166" r="24.5" transform="rotate(-37.2591 438.166 139.166)" stroke="black" stroke-opacity="0.35"/>
<line x1="397.653" y1="166.842" x2="337.164" y2="212.854" stroke="black" stroke-opacity="0.35"/>
<line x1="401.891" y1="172.413" x2="341.402" y2="218.425" stroke="black" stroke-opacity="0.35"/>
<line x1="536.141" y1="61.4985" x2="475.652" y2="107.51" stroke="black" stroke-opacity="0.35"/>
<line x1="540.379" y1="67.0698" x2="479.89" y2="113.082" stroke="black" stroke-opacity="0.35"/>
</g>
<defs>
<clipPath id="clip0_196_2464">
<rect width="1728" height="3250" fill="white"/>
</clipPath>
</defs>
</svg>
