<svg width="53" height="53" viewBox="0 0 53 53" fill="none" xmlns="http://www.w3.org/2000/svg">
<g clip-path="url(#clip0_37_692)">
<path d="M43.4054 11.4815C42.466 9.27398 41.1274 7.28299 39.425 5.56112C37.7112 3.82818 35.7233 2.46388 33.5158 1.50691C31.2106 0.506545 28.7723 0 26.2651 0C23.7594 0 21.3194 0.506648 19.0142 1.50691C16.8067 2.46398 14.8188 3.82828 13.1051 5.56112C11.4027 7.28289 10.0633 9.27398 9.12377 11.4815C8.15316 13.7627 7.66016 16.1593 7.66016 18.604C7.66016 23.9327 10.294 27.8716 13.6285 32.8571C16.462 37.0941 19.9888 42.3667 22.9843 50.177C23.3057 51.0571 24.3525 52.5305 26.2651 52.5305C28.1679 52.5305 29.2178 51.1486 29.5385 50.3309L29.5433 50.3198C32.5492 42.418 36.0888 37.1037 38.9328 32.8348C42.2495 27.8523 44.8707 23.9183 44.8707 18.604C44.8707 16.1593 44.3768 13.7627 43.4054 11.4815Z" fill="#ED5564"/>
<path d="M7.66016 18.6121C7.66252 23.9376 10.2957 27.8732 13.6285 32.8572C16.462 37.0941 19.9888 42.3667 22.9843 50.1771C23.3057 51.0572 24.3525 52.5306 26.2651 52.5306C28.1679 52.5306 29.2178 51.1486 29.5385 50.331L29.5433 50.3198C32.5492 42.418 36.0888 37.1038 38.9328 32.8348C42.248 27.8557 44.8675 23.9216 44.8707 18.6121H7.66016Z" fill="#E6E9ED"/>
<path d="M7.66016 18.6041C7.66016 18.976 7.67462 19.3399 7.69945 19.699H44.8306C44.8546 19.3399 44.8707 18.976 44.8707 18.6041C44.8707 18.2386 44.8578 17.873 44.8354 17.5107H7.69463C7.67298 17.873 7.66016 18.2385 7.66016 18.6041Z" fill="#434A54"/>
<path d="M32.8314 18.604C32.8314 22.2303 29.8912 25.1703 26.265 25.1703C22.6388 25.1703 19.6987 22.2303 19.6987 18.604C19.6987 14.9778 22.6388 12.0377 26.265 12.0377C29.8912 12.0377 32.8314 14.9778 32.8314 18.604Z" fill="#A0D468"/>
<path opacity="0.2" d="M26.2647 12.0377C25.698 12.0377 25.1481 12.1098 24.623 12.2446C27.455 12.974 29.5477 15.5454 29.5477 18.604C29.5477 21.6643 27.455 24.2357 24.623 24.9635C25.1481 25.0981 25.698 25.1703 26.2647 25.1703C29.8908 25.1703 32.831 22.2303 32.831 18.604C32.831 14.9778 29.8908 12.0377 26.2647 12.0377Z" fill="white"/>
<path d="M26.265 26.2653C22.0407 26.2653 18.6045 22.8282 18.6045 18.604C18.6045 14.3799 22.0407 10.9443 26.265 10.9443C30.4891 10.9443 33.9245 14.3798 33.9245 18.604C33.9245 22.8282 30.4891 26.2653 26.265 26.2653ZM26.265 13.1326C23.2479 13.1326 20.7928 15.587 20.7928 18.604C20.7928 21.621 23.2479 24.077 26.265 24.077C29.2819 24.077 31.7379 21.621 31.7379 18.604C31.7379 15.587 29.2819 13.1326 26.265 13.1326Z" fill="#434A54"/>
<path d="M26.265 38.303C25.6606 38.303 25.1709 38.7935 25.1709 39.3979V52.3527C25.498 52.4649 25.8618 52.5306 26.265 52.5306C26.6674 52.5306 27.0322 52.4681 27.3591 52.3622V39.3979C27.3591 38.7935 26.8695 38.303 26.265 38.303Z" fill="#CCD1D9"/>
<path opacity="0.2" d="M43.4054 11.4815C42.466 9.27398 41.1274 7.28299 39.425 5.56112C37.7112 3.82818 35.7233 2.46388 33.5158 1.50691C31.2106 0.506545 28.7723 0 26.265 0C25.8988 0 25.534 0.0128252 25.1709 0.0336534C27.2926 0.160264 29.3589 0.652445 31.3276 1.50691C33.5335 2.46398 35.5213 3.82828 37.2367 5.56112C38.9392 7.28289 40.2778 9.27398 41.2172 11.4815C42.1886 13.7627 42.6808 16.1593 42.6808 18.604C42.6808 23.9182 40.0614 27.8523 36.7429 32.8348C33.899 37.1037 30.361 42.418 27.3544 50.3198L27.3504 50.3309C27.0988 50.9722 26.3966 51.9629 25.1862 52.3573C25.5092 52.4663 25.8683 52.5305 26.2651 52.5305C28.168 52.5305 29.2179 51.1486 29.5386 50.3309L29.5434 50.3198C32.5493 42.418 36.0889 37.1037 38.9329 32.8348C42.2496 27.8523 44.8707 23.9183 44.8707 18.604C44.8706 16.1593 44.3768 13.7627 43.4054 11.4815Z" fill="white"/>
</g>
<defs>
<clipPath id="clip0_37_692">
<rect width="52.5306" height="52.5306" fill="white"/>
</clipPath>
</defs>
</svg>
