<svg width="99" height="99" viewBox="0 0 99 99" fill="none" xmlns="http://www.w3.org/2000/svg">
<g clip-path="url(#clip0_199_3877)">
<path d="M0.000144034 49.5656C0.0664347 22.1799 22.251 0.106233 49.5942 0.218167C76.9603 0.32684 98.9623 22.4082 98.9069 49.7058C98.8515 77.0034 76.6615 99.0891 49.3921 98.9956C22.0162 98.9032 -0.0650599 76.8067 0.000144034 49.5656Z" fill="white"/>
<path d="M18.8006 53.329C22.6803 53.329 26.561 53.3518 30.4406 53.3105C31.235 53.3018 31.5491 53.5279 31.7447 54.319C33.7899 62.3282 41.0906 67.926 49.4584 67.9455C53.5063 67.9571 57.4437 66.6266 60.6549 64.1622C63.8661 61.6978 66.1699 58.2385 67.2059 54.3255C67.4232 53.517 67.7242 53.3105 68.5099 53.3138C76.3105 53.3391 84.1114 53.3391 91.9127 53.3138C92.7821 53.3138 92.9473 53.4768 92.8517 54.3907C90.9923 72.1142 78.058 87.5958 59.9791 91.9036C45.1745 95.4301 31.8327 92.1036 20.3601 82.0448C12.5356 75.1886 8.00505 66.4404 6.29562 56.2099C5.8142 53.3279 5.80768 53.3301 8.75815 53.3301L18.8006 53.329Z" fill="#E6E9ED"/>
<path d="M80.0595 45.8523C76.2625 45.8523 72.4643 45.824 68.6684 45.8729C67.762 45.8849 67.4023 45.5762 67.1567 44.7166C65.0061 37.1769 58.3998 31.7182 50.9938 31.3085C42.6498 30.8456 35.6078 35.1425 32.4454 42.6258C32.3509 42.8507 32.265 43.0811 32.1868 43.3115C31.3174 45.8523 31.3174 45.8523 28.5571 45.8523C21.5335 45.8523 14.5111 45.836 7.48753 45.8686C6.44318 45.8686 5.98349 45.7686 6.17149 44.4862C8.64924 27.5669 17.7148 15.5694 33.5191 9.16745C50.5515 2.26235 69.3921 6.84293 81.7624 20.3749C87.9644 27.1594 91.5919 35.1871 92.7384 44.3178C92.9297 45.8512 92.9166 45.8555 91.3333 45.8566C87.5746 45.8544 83.8167 45.853 80.0595 45.8523Z" fill="#EB2127"/>
<path d="M49.5678 62.4467C42.5986 62.5086 36.6922 56.8087 36.6357 49.9666C36.576 42.6562 42.2063 36.8172 49.3559 36.7705C56.4034 36.7259 62.2304 42.4508 62.3196 49.508C62.4108 56.5207 56.6305 62.3891 49.5678 62.4467Z" fill="white"/>
<path d="M49.5657 43.3191C53.1183 43.3593 55.8199 46.1674 55.7764 49.7732C55.734 53.2355 52.9074 55.9448 49.3647 55.9187C48.5387 55.9133 47.722 55.7449 46.9612 55.4231C46.2005 55.1013 45.5108 54.6325 44.9317 54.0436C44.3525 53.4547 43.8954 52.7572 43.5864 51.9912C43.2774 51.2252 43.1227 50.4057 43.1312 49.5798C43.1768 46.0175 45.9904 43.2789 49.5657 43.3191Z" fill="#E8E9EA"/>
</g>
<defs>
<clipPath id="clip0_199_3877">
<rect width="98.9068" height="98.7785" fill="white" transform="translate(0 0.221466)"/>
</clipPath>
</defs>
</svg>
