<?xml version="1.0" encoding="utf-8" ?>
<svg baseProfile="full" height="64" version="1.1" viewBox="0 0 64 64" width="64" xmlns="http://www.w3.org/2000/svg" xmlns:ev="http://www.w3.org/2001/xml-events" xmlns:xlink="http://www.w3.org/1999/xlink"><defs /><path d="M32,12 L48,20 L44,44 L32,52 L20,44 L16,20 Z" fill="none" stroke="#1E1E1E" stroke-width="1.5" /><path d="M32,19 L33.2,21.6 L35.5,22 L33.2,22.4 L32,25 L30.8,22.4 L28.5,22 L30.8,21.6 Z" fill="#FFD700" stroke="#1E1E1E" stroke-width="0.7" /><path d="M26,27 L27.2,29.6 L29.5,30 L27.2,30.4 L26,33 L24.8,30.4 L22.5,30 L24.8,29.6 Z" fill="#FFD700" stroke="#1E1E1E" stroke-width="0.7" /><path d="M38,27 L39.2,29.6 L41.5,30 L39.2,30.4 L38,33 L36.8,30.4 L34.5,30 L36.8,29.6 Z" fill="#FFD700" stroke="#1E1E1E" stroke-width="0.7" /><text fill="#1E1E1E" font-family="Arial" font-size="8px" font-weight="bold" x="24" y="44">XP</text><circle cx="32" cy="50" fill="#E3342F" r="4" stroke="#1E1E1E" stroke-width="1.2" /><line stroke="#1E1E1E" stroke-width="1.2" x1="28" x2="36" y1="50" y2="50" /><circle cx="32" cy="50" fill="white" r="1.5" stroke="#1E1E1E" stroke-width="0.8" /></svg>